<svg id="レイヤー_1" data-name="レイヤー 1" xmlns="http://www.w3.org/2000/svg" viewBox="0 0 500 194"><title>名称未設定-3</title><path d="M1188.32,2055.74h-.25L1163.94,2124h-20.19l34.41-90.59h20.44l33.9,90.59h-20.69l-23.74-68.26" transform="translate(-1036 -1930)" style="fill:#fff"/><path d="M1312.33,2113.47q-.39-5.46-.76-10.91-1.27-18.15-13.21-21.19v-.26q14.36-5.84,14.35-22.71a23.91,23.91,0,0,0-7.11-17.63q-7.5-7.37-19.43-7.36h-48.88v15.48h41.77q13.71,0,13.71,12.56,0,12.95-13.71,12.94h-41.77V2124h19.93v-35.4h19.94q7.36,0,10.73,3.17t4.38,10.53q.49,5.72,1,11.42a40.89,40.89,0,0,0,2.16,10.28h19.94Q1313.08,2120.84,1312.33,2113.47Z" transform="translate(-1036 -1930)" style="fill:#fff"/><polygon points="328.98 139.19 364.4 103.41 339.52 103.41 304.09 140.96 304.09 103.41 284.16 103.41 284.16 184.96 304.87 164.03 304.87 164.03 315.52 153.27 342.82 194 367.83 194 328.98 139.19" style="fill:#fff"/><polygon points="500 138.74 472.83 138.74 472.83 103.41 452.89 103.41 452.89 138.74 390.77 138.74 390.77 120.16 419.72 120.16 419.72 103.41 370.84 103.41 370.84 194 419.72 194 419.72 177.25 390.77 177.25 390.77 155.5 452.89 155.5 452.89 194 472.83 194 472.83 155.5 500 155.5 500 138.74" style="fill:#fff"/><polygon points="87.77 103.41 67.71 165.71 67.45 165.71 46.25 103.41 36.86 103.41 18.19 103.41 0 103.41 0 120.16 18.19 120.16 18.19 194 36.85 194 36.85 130.43 37.11 130.43 59.33 194 74.69 194 96.91 129.8 97.16 129.8 97.16 158.66 115.83 158.66 115.83 103.41 87.77 103.41" style="fill:#fff"/><polygon points="274.66 37.76 312.04 0 285.78 0 248.4 39.63 248.4 0 227.37 0 227.37 86.05 249.22 63.97 249.22 63.97 260.46 52.62 289.26 95.59 315.66 95.59 274.66 37.76" style="fill:#fff"/><rect x="132.34" y="58.31" width="21.03" height="37.29" style="fill:#fff"/><rect x="132.34" width="21.03" height="37.29" style="fill:#fff"/><polygon points="455.12 37.29 426.45 37.29 426.45 0 405.41 0 405.41 37.29 339.86 37.29 339.86 17.67 370.41 17.67 370.41 0 318.83 0 318.83 95.59 370.41 95.59 370.41 77.92 339.86 77.92 339.86 54.96 405.41 54.96 405.41 95.59 426.45 95.59 426.45 54.96 455.12 54.96 455.12 37.29" style="fill:#fff"/><polygon points="123.26 37.29 94.59 37.29 94.59 0 73.55 0 73.55 37.29 44.88 37.29 44.88 54.96 73.55 54.96 73.55 95.59 94.59 95.59 94.59 54.96 123.26 54.96 123.26 37.29" style="fill:#fff"/><polygon points="218.34 17.67 218.34 0 187.94 0 166.9 17.67 166.9 95.59 218.34 95.59 218.34 77.92 187.94 77.92 187.94 17.67 218.34 17.67" style="fill:#fff"/></svg>