<svg id="レイヤー_1" data-name="レイヤー 1" xmlns="http://www.w3.org/2000/svg" viewBox="0 0 4000 397"><title>名称未設定-2</title><path d="M3138.68,2547.86h-1.12L3032,2847h-88.34l150.56-397h89.45L3332,2847h-90.55l-103.9-299.14" transform="translate(-660 -2450)" style="fill:#fff"/><path d="M3681.29,2800.85Q3679.63,2777,3678,2753q-5.57-79.5-57.78-92.85v-1.11q62.78-25.58,62.78-99.53,0-46.15-31.11-77.29-32.79-32.23-85-32.25H3353v67.84h182.78q60,0,60,55,0,56.72-60,56.72H3353V2847h87.22V2691.87h87.23q32.22,0,46.94,13.9t19.17,46.15l4.44,50q3.35,30,9.45,45h87.23Q3684.63,2833.11,3681.29,2800.85Z" transform="translate(-660 -2450)" style="fill:#fff"/><polygon points="952.84 156.8 1107.84 0 998.95 0 843.94 164.58 843.94 0 756.72 0 756.72 357.38 847.36 265.66 847.36 265.66 893.95 218.52 1013.4 397 1122.84 397 952.84 156.8" style="fill:#fff"/><rect x="362.69" y="242.15" width="87.23" height="154.85" style="fill:#fff"/><rect x="362.69" width="87.23" height="154.85" style="fill:#fff"/><polygon points="3251.68 156.8 3406.68 0 3297.79 0 3142.78 164.58 3142.78 0 3055.56 0 3055.56 357.38 3146.2 265.66 3146.2 265.66 3192.79 218.52 3312.24 397 3421.68 397 3251.68 156.8" style="fill:#fff"/><polygon points="1701.16 154.85 1582.26 154.85 1582.26 0 1495.04 0 1495.04 154.85 1223.22 154.85 1223.22 73.4 1349.89 73.4 1349.89 0 1135.99 0 1135.99 397 1349.89 397 1349.89 323.61 1223.22 323.61 1223.22 228.26 1495.04 228.26 1495.04 397 1582.26 397 1582.26 228.26 1701.16 228.26 1701.16 154.85" style="fill:#fff"/><polygon points="4000 154.85 3881.1 154.85 3881.1 0 3793.88 0 3793.88 154.85 3522.06 154.85 3522.06 73.4 3648.73 73.4 3648.73 0 3434.83 0 3434.83 397 3648.73 397 3648.73 323.61 3522.06 323.61 3522.06 228.26 3793.88 228.26 3793.88 397 3881.1 397 3881.1 228.26 4000 228.26 4000 154.85" style="fill:#fff"/><polygon points="325.02 154.85 206.13 154.85 206.13 0 118.9 0 118.9 154.85 0 154.85 0 228.26 118.9 228.26 118.9 397 206.13 397 206.13 228.26 325.02 228.26 325.02 154.85" style="fill:#fff"/><polygon points="2196.22 0 2108.44 273.01 2107.33 273.01 2014.55 0 1973.45 0 1891.77 0 1812.18 0 1812.18 73.4 1891.77 73.4 1891.77 397 1973.44 397 1973.44 118.43 1974.55 118.43 2071.77 397 2139 397 2236.22 115.65 2237.33 115.65 2237.33 242.15 2319 242.15 2319 0 2196.22 0" style="fill:#fff"/><polygon points="719.31 73.4 719.31 0 593.21 0 505.99 73.4 505.99 397 719.31 397 719.31 323.61 593.21 323.61 593.21 73.4 719.31 73.4" style="fill:#fff"/></svg>