<svg xmlns="http://www.w3.org/2000/svg" viewBox="0 0 300 342"><title>tkmt_sub_logo</title><g id="ロゴ"><polygon points="96 0 84 0 0 0 0 84.24 0 300 84 300 84 84.24 96 84.24 96 0" style="fill:#fff"/><rect x="108" width="84" height="300" style="fill:#fff"/><polygon points="216 0 216 215.76 204 215.76 204 300 216 300 300 300 300 215.76 300 0 216 0" style="fill:#fff"/><path d="M1298,647.89h-.09L1289.43,672h-7.08l12.07-32h7.18l11.89,32h-7.26l-8.33-24.11" transform="translate(-1120 -330)" style="fill:#fff"/><path d="M1341.51,668.28l-.27-3.85q-.45-6.42-4.63-7.49v-.09q5-2.05,5-8a8.46,8.46,0,0,0-2.5-6.23,9.27,9.27,0,0,0-6.81-2.6h-17.16v5.47h14.66q4.82,0,4.81,4.43t-4.81,4.58h-14.66V672h7V659.5h7a5.33,5.33,0,0,1,3.77,1.12,6.13,6.13,0,0,1,1.54,3.72c.11,1.34.23,2.69.35,4a14.47,14.47,0,0,0,.76,3.63h7A7.89,7.89,0,0,1,1341.51,668.28Z" transform="translate(-1120 -330)" style="fill:#fff"/><polygon points="55.61 322.64 68.05 310 59.31 310 46.88 323.27 46.88 310 39.88 310 39.88 338.81 47.15 331.41 47.15 331.41 50.89 327.61 60.47 342 69.25 342 55.61 322.64" style="fill:#fff"/><rect x="29.09" y="329.52" width="7" height="12.48" style="fill:#fff"/><rect x="29.09" y="310" width="7" height="12.48" style="fill:#fff"/><polygon points="239.98 322.64 252.41 310 243.68 310 231.25 323.27 231.25 310 224.25 310 224.25 338.81 231.52 331.41 231.52 331.41 235.26 327.61 244.84 342 253.62 342 239.98 322.64" style="fill:#fff"/><polygon points="115.63 322.48 106.09 322.48 106.09 310 99.1 310 99.1 322.48 77.3 322.48 77.3 315.92 87.46 315.92 87.46 310 70.3 310 70.3 342 87.46 342 87.46 336.08 77.3 336.08 77.3 328.4 99.1 328.4 99.1 342 106.09 342 106.09 328.4 115.63 328.4 115.63 322.48" style="fill:#fff"/><polygon points="300 322.48 290.46 322.48 290.46 310 283.47 310 283.47 322.48 261.67 322.48 261.67 315.92 271.83 315.92 271.83 310 254.67 310 254.67 342 271.83 342 271.83 336.08 261.67 336.08 261.67 328.4 283.47 328.4 283.47 342 290.46 342 290.46 328.4 300 328.4 300 322.48" style="fill:#fff"/><polygon points="26.07 322.48 16.53 322.48 16.53 310 9.54 310 9.54 322.48 0 322.48 0 328.4 9.54 328.4 9.54 342 16.53 342 16.53 328.4 26.07 328.4 26.07 322.48" style="fill:#fff"/><polygon points="155.34 310 148.29 332.01 148.21 332.01 140.76 310 137.47 310 130.92 310 124.53 310 124.53 315.92 130.92 315.92 130.92 342 137.47 342 137.47 319.55 137.56 319.55 145.35 342 150.75 342 158.54 319.32 158.63 319.32 158.63 329.52 165.18 329.52 165.18 310 155.34 310" style="fill:#fff"/></g></svg>