<svg xmlns="http://www.w3.org/2000/svg" viewBox="0 0 1000 106.05"><title>logo</title><g id="ロゴ"><path d="M1713.29,356.14H1713l-28.22,79.91h-23.62l40.25-106h23.91L1765,436.05h-24.21L1713,356.14" transform="translate(-1120 -330)" style="fill:#fff"/><path d="M1858.35,423.72q-.43-6.39-.89-12.77Q1856,389.71,1842,386.14v-.3q16.77-6.82,16.78-26.58a28,28,0,0,0-8.32-20.65q-8.76-8.61-22.72-8.61h-57.18v18.12h48.86q16,0,16,14.7,0,15.15-16,15.15h-48.86v58.08h23.31V394.61h23.32q8.61,0,12.55,3.71c2.63,2.48,4.33,6.59,5.13,12.33q.58,6.68,1.19,13.36a47.73,47.73,0,0,0,2.52,12h23.32Q1859.25,432.33,1858.35,423.72Z" transform="translate(-1120 -330)" style="fill:#fff"/><polygon points="185.38 41.88 226.82 0 197.71 0 156.27 43.96 156.27 0 132.95 0 132.95 95.46 157.18 70.96 157.18 70.96 169.63 58.37 201.57 106.05 230.83 106.05 185.38 41.88" style="fill:#fff"/><rect x="96.96" y="64.68" width="23.32" height="41.36" style="fill:#fff"/><rect x="96.96" width="23.32" height="41.36" style="fill:#fff"/><polygon points="799.95 41.88 841.38 0 812.27 0 770.83 43.96 770.83 0 747.52 0 747.52 95.46 771.75 70.96 771.75 70.96 784.2 58.37 816.13 106.05 845.39 106.05 799.95 41.88" style="fill:#fff"/><polygon points="385.43 41.36 353.65 41.36 353.65 0 330.33 0 330.33 41.36 257.66 41.36 257.66 19.61 291.52 19.61 291.52 0 234.34 0 234.34 106.05 291.52 106.05 291.52 86.44 257.66 86.44 257.66 60.97 330.33 60.97 330.33 106.05 353.65 106.05 353.65 60.97 385.43 60.97 385.43 41.36" style="fill:#fff"/><polygon points="1000 41.36 968.21 41.36 968.21 0 944.89 0 944.89 41.36 872.23 41.36 872.23 19.61 906.09 19.61 906.09 0 848.91 0 848.91 106.05 906.09 106.05 906.09 86.44 872.23 86.44 872.23 60.97 944.89 60.97 944.89 106.05 968.21 106.05 968.21 60.97 1000 60.97 1000 41.36" style="fill:#fff"/><polygon points="86.89 41.36 55.1 41.36 55.1 0 31.79 0 31.79 41.36 0 41.36 0 60.97 31.79 60.97 31.79 106.05 55.1 106.05 55.1 60.97 86.89 60.97 86.89 41.36" style="fill:#fff"/><polygon points="517.78 0 494.31 72.92 494.02 72.92 469.21 0 458.23 0 436.39 0 415.11 0 415.11 19.61 436.39 19.61 436.39 106.05 458.22 106.05 458.22 31.64 458.52 31.64 484.51 106.05 502.48 106.05 528.48 30.89 528.77 30.89 528.77 64.68 550.61 64.68 550.61 0 517.78 0" style="fill:#fff"/></g></svg>