<?xml version="1.0" encoding="UTF-8" standalone="no"?>
<svg xmlns:dc="http://purl.org/dc/elements/1.1/" xmlns:cc="http://creativecommons.org/ns#" xmlns:rdf="http://www.w3.org/1999/02/22-rdf-syntax-ns#" xmlns:svg="http://www.w3.org/2000/svg" xmlns="http://www.w3.org/2000/svg" xmlns:sodipodi="http://sodipodi.sourceforge.net/DTD/sodipodi-0.dtd" xmlns:inkscape="http://www.inkscape.org/namespaces/inkscape" id="svg2" version="1.1" inkscape:version="0.48.1 r9760" width="100%" height="100%" sodipodi:docname="sample.svg">
  <title id="title3905">テスト会場図</title>
  <metadata id="metadata78">
    <rdf:RDF>
      <cc:Work rdf:about="">
        <dc:format>image/svg+xml</dc:format>
        <dc:type rdf:resource="http://purl.org/dc/dcmitype/StillImage"/>
        <dc:title>テスト会場図</dc:title>
      </cc:Work>
    </rdf:RDF>
  </metadata>
  <defs id="defs76"/>
  <sodipodi:namedview pagecolor="#ffffff" bordercolor="#666666" borderopacity="1" objecttolerance="10" gridtolerance="10" guidetolerance="10" inkscape:pageopacity="0" inkscape:pageshadow="2" inkscape:window-width="903" inkscape:window-height="696" id="namedview74" showgrid="false" inkscape:zoom="1" inkscape:cx="197.27798" inkscape:cy="881.13189" inkscape:window-x="0" inkscape:window-y="0" inkscape:window-maximized="0" inkscape:current-layer="g3085"/>
  <g id="g3859" transform="translate(14.201001,-8.5206004)">
    <g id="g3085">
      <g id="g3959">
        <g id="g3907">
          <rect x="10" y="10" width="450" height="290" id="rect4" style="fill:#4080d0; stroke:#000000;stroke-opacity:1"/>
          <g id="g3903">
            <rect style="fill:#ffffff;stroke:#000000;stroke-opacity:1" id="rect6" height="110" width="420" y="25" x="25"/>
            <text style="fill:#000000;fill-opacity:1" x="205.57181" y="82.433838" id="text3907">ステージ</text>
          </g>
          <rect x="-15" y="165" width="25" height="50" id="rect8" style="fill:#80c0ff;stroke:#000000;stroke-opacity:1"/>
          <rect x="175" y="300" width="120" height="35" id="rect10" style="fill:#80c0ff;stroke:#000000;stroke-opacity:1"/>
          <rect x="460" y="165" width="25" height="50" id="rect12" style="fill:#80c0ff;stroke:#000000;stroke-opacity:1"/>
        </g>
        <g id="g3916">
          <g id="g3835" style="fill:none;stroke:#000000;stroke-opacity:1">
            <path inkscape:connector-curvature="0" id="path68" d="m 25,150 420,0 -110,130 -200,0 z" style="fill:#ffffff;fill-opacity:.25;stroke:#000000;stroke-opacity:1"/>
            <g id="g3028" style="fill:none;stroke:#000000;stroke-opacity:1">
              <rect rx="4" ry="4" x="60" y="160" width="30" height="30" id="A1" style="fill:none;stroke:#000000;stroke-opacity:1"/>
              <rect rx="4" ry="4" x="100" y="160" width="30" height="30" id="A2" style="fill:none;stroke:#000000;stroke-opacity:1"/>
              <rect rx="4" ry="4" x="140" y="160" width="30" height="30" id="A3" style="fill:none;stroke:#000000;stroke-opacity:1"/>
              <rect rx="4" ry="4" x="180" y="160" width="30" height="30" id="A4" style="fill:none;stroke:#000000;stroke-opacity:1"/>
              <rect rx="4" ry="4" x="220" y="160" width="30" height="30" id="A5" style="fill:none;stroke:#000000;stroke-opacity:1"/>
              <rect rx="4" ry="4" x="260" y="160" width="30" height="30" id="A6" style="fill:none;stroke:#000000;stroke-opacity:1"/>
              <rect rx="4" ry="4" x="300" y="160" width="30" height="30" id="A7" style="fill:none;stroke:#000000;stroke-opacity:1"/>
              <rect rx="4" ry="4" x="340" y="160" width="30" height="30" id="A8" style="fill:none;stroke:#000000;stroke-opacity:1"/>
              <rect rx="4" ry="4" x="380" y="160" width="30" height="30" id="A9" style="fill:none;stroke:#000000;stroke-opacity:1"/>
              <text x="49" y="177" id="text3957" style="fill:#000000;stroke:none;stroke-opacity:1;fill-opacity:1">A列</text>
            </g>
            <g id="g3041" style="fill:none;stroke:#000000;stroke-opacity:1">
              <rect rx="4" ry="4" x="100" y="200" width="30" height="30" id="B1" style="fill:none;stroke:#000000;stroke-opacity:1"/>
              <rect rx="4" ry="4" x="140" y="200" width="30" height="30" id="B2" style="fill:none;stroke:#000000;stroke-opacity:1"/>
              <rect rx="4" ry="4" x="180" y="200" width="30" height="30" id="B3" style="fill:none;stroke:#000000;stroke-opacity:1"/>
              <rect rx="4" ry="4" x="220" y="200" width="30" height="30" id="B4" style="fill:none;stroke:#000000;stroke-opacity:1"/>
              <rect rx="4" ry="4" x="260" y="200" width="30" height="30" id="B5" style="fill:none;stroke:#000000;stroke-opacity:1"/>
              <rect rx="4" ry="4" x="300" y="200" width="30" height="30" id="B6" style="fill:none;stroke:#000000;stroke-opacity:1"/>
              <rect rx="4" ry="4" x="340" y="200" width="30" height="30" id="B7" style="fill:none;stroke:#000000;stroke-opacity:1"/>
              <text x="90" y="217.36218" id="text3958" style="fill:#000000;stroke:none;stroke-opacity:1;fill-opacity:1">B列</text>
            </g>
            <g id="g3051" style="fill:none;stroke:#000000;stroke-opacity:1">
              <rect rx="4" ry="4" x="140" y="240" width="30" height="30" id="C1" style="fill:none;stroke:#000000;stroke-opacity:1"/>
              <rect rx="4" ry="4" x="180" y="240" width="30" height="30" id="C2" style="fill:none;stroke:#000000;stroke-opacity:1"/>
              <rect rx="4" ry="4" x="220" y="240" width="30" height="30" id="C3" style="fill:none;stroke:#000000;stroke-opacity:1"/>
              <rect rx="4" ry="4" x="260" y="240" width="30" height="30" id="C4" style="fill:none;stroke:#000000;stroke-opacity:1"/>
              <rect rx="4" ry="4" x="300" y="240" width="30" height="30" id="C5" style="fill:none;stroke:#000000;stroke-opacity:1"/>
              <text x="127" y="258.36218" id="text3985" style="fill:#000000;stroke:none;stroke-opacity:1;fill-opacity:1">C列</text>
            </g>
          </g>
          <g id="g3078" style="fill:none;stroke:#000000;stroke-opacity:1">
            <path inkscape:connector-curvature="0" id="path72" d="m 445,165 0,115 -95,0 z" style="fill:#ffffff;fill-opacity:.25;stroke:#000000;stroke-opacity:1"/>
            <rect rx="4" ry="4" id="D1" height="30" width="30" y="200" x="410" style="fill:none;stroke:#000000;stroke-opacity:1"/>
            <rect rx="4" ry="4" id="D2" height="30" width="30" y="240" x="370" style="fill:none;stroke:#000000;stroke-opacity:1"/>
            <rect rx="4" ry="4" id="D3" height="30" width="30" y="240" x="410" style="fill:none;stroke:#000000;stroke-opacity:1"/>
            <text id="text4069" y="239.36218" x="385" style="fill:#000000;stroke:none;stroke-opacity:1;fill-opacity:1">車椅子席</text>
          </g>
          <g id="g3071" style="fill:none;stroke:#000000;stroke-opacity:1">
            <path inkscape:connector-curvature="0" id="path70" d="m 25,165 95,115 -95,0 z" style="fill:#ffffff;fill-opacity:.25;stroke:#000000;stroke-opacity:1"/>
            <rect rx="4" ry="4" id="E1" height="30" width="30" y="200" x="30" style="fill:none;stroke:#000000;stroke-opacity:1"/>
            <rect rx="4" ry="4" id="E2" height="30" width="30" y="240" x="30" style="fill:none;stroke:#000000;stroke-opacity:1"/>
            <rect rx="4" ry="4" id="E3" height="30" width="30" y="240" x="70" style="fill:none;stroke:#000000;stroke-opacity:1"/>
            <text x="38" y="240.36218" id="text3059" style="fill:#000000;stroke:none;stroke-opacity:1;fill-opacity:1">車椅子席</text>
          </g>
        </g>
      </g>
    </g>
  </g>
</svg>
