<?xml version="1.0" encoding="utf-8"?>
<!-- Generator: Adobe Illustrator 24.0.0, SVG Export Plug-In . SVG Version: 6.00 Build 0)  -->
<svg version="1.1" id="レイヤー_1" xmlns="http://www.w3.org/2000/svg" xmlns:xlink="http://www.w3.org/1999/xlink" x="0px"
	 y="0px" viewBox="0 0 800 260.8" style="enable-background:new 0 0 800 260.8;" xml:space="preserve">
<style type="text/css">
	.st0{fill:#9B0020;}
</style>
<polygon class="st0" points="309,76 273,141.6 257.7,76 226.8,76 257.8,208.4 267.9,208.4 341,76 "/>
<polygon class="st0" points="346.7,76 346.7,105.1 366.1,105.1 354.8,177.4 333.9,177.4 333.9,206.4 403.6,206.4 403.6,177.4 
	384,177.4 395.3,105.1 416.4,105.1 416.4,76 "/>
<path class="st0" d="M466.2,76.9c-5.6,1.9-10.7,4.6-15.2,8c-9.8,7.3-16,17.5-17.7,28.6c-0.4,2.3-0.6,4.6-0.6,6.7
	c0,3.6,0.5,6.9,1.5,10c1.5,4.4,4.1,8.4,7.7,11.8c6.4,6,15.2,9.5,22.9,12.6c11.7,4.7,17.2,7.5,17.2,12.5c0,0.4,0,0.8-0.1,1.2l0,0
	c-1.1,7.2-11.6,11-18.7,11c-4.5,0-8.7-0.8-13.6-2.6c-4.2-1.6-8.8-3.9-15-7.5l-4.9-2.9l-7.7,26.2l2.1,1.9c5.6,4.9,10.7,8.3,16.1,10.5
	c5.7,2.4,12,3.5,19.1,3.5c12.2,0,24.2-3.7,33.7-10.5c5.1-3.6,9.4-8.1,12.6-13.1c3.5-5.4,5.8-11.6,6.8-18.2c0.3-2,0.5-4,0.5-5.9
	c0-3.5-0.6-6.8-1.7-9.9c-1.5-4.2-4.1-8-7.7-11.3c-6.4-5.8-15-9.5-22.6-12.8c-5.4-2.3-10.6-4.5-13.9-7c-2.9-2.2-3.6-4-3.6-5.7
	c0-0.3,0-0.7,0.1-1c0.5-2.4,2.3-4.9,5-6.7c3.3-2.2,7.7-3.5,12.5-3.5c3.9,0,8.1,0.9,12.5,2.8c3.7,1.6,7.6,3.9,11.7,6.9l4,3L522.3,92
	l-2.6-2.4c-6.3-5.7-11.5-9.3-16.7-11.7c-5.9-2.7-12.1-4-19.5-4C477.6,74,471.8,75,466.2,76.9 M433.3,113.5L433.3,113.5L433.3,113.5
	L433.3,113.5z M512.3,166.6L512.3,166.6L512.3,166.6L512.3,166.6z"/>
<path class="st0" d="M569.4,76.9c-5.5,1.9-10.7,4.6-15.2,8c-9.8,7.3-16,17.5-17.7,28.6c-0.4,2.3-0.6,4.6-0.6,6.7
	c0,3.6,0.5,6.9,1.5,10c1.5,4.4,4.1,8.4,7.7,11.8c6.4,6,15.1,9.5,22.8,12.6c11.7,4.7,17.2,7.5,17.2,12.5c0,0.4-0.1,0.8-0.1,1.2l0,0
	c-1.1,7.2-11.6,11-18.8,11c-4.4,0-8.8-0.8-13.6-2.6c-4.2-1.6-8.9-3.9-15-7.5l-4.9-2.9l-7.6,26.2l2.1,1.9c5.5,4.9,10.7,8.3,16.1,10.5
	c5.7,2.4,12,3.5,19.1,3.5c12.2,0,24.2-3.7,33.7-10.5c5.1-3.6,9.3-8.1,12.6-13.1c3.5-5.4,5.8-11.6,6.8-18.2c0.3-2,0.5-4,0.5-5.9
	c0-3.5-0.6-6.8-1.7-9.9c-1.5-4.2-4.1-8-7.7-11.3c-6.4-5.8-15-9.5-22.6-12.8c-5.4-2.3-10.6-4.5-13.9-7c-2.9-2.2-3.6-4-3.6-5.7
	c0-0.3,0-0.7,0.1-1c0.4-2.4,2.3-4.9,5-6.7c3.3-2.2,7.7-3.5,12.5-3.5c3.9,0,8.1,0.9,12.5,2.8c3.7,1.6,7.7,3.9,11.7,6.9l4.1,3
	L625.5,92l-2.6-2.4c-6.3-5.7-11.4-9.3-16.6-11.7c-5.9-2.7-12.1-4-19.5-4C580.8,74,575,75,569.4,76.9 M536.5,113.5L536.5,113.5
	L536.5,113.5L536.5,113.5z M615.6,166.6L615.6,166.6L615.6,166.6L615.6,166.6z"/>
<polygon class="st0" points="649.4,76 649.4,100.3 632.6,206.4 705.6,206.4 705.6,177.4 666.5,177.4 670.7,149.7 712.7,149.7 
	712.7,120.7 675.4,120.7 677.8,105.1 719.1,105.1 719.1,76 "/>
<polygon class="st0" points="749.2,76 749.2,100.3 732.4,206.4 800,206.4 800,177.4 766.3,177.4 782.3,76 "/>
<polygon class="st0" points="113.4,161.9 0,0 113.4,260.8 226.8,0 "/>
</svg>
