<svg xmlns="http://www.w3.org/2000/svg" width="24.792" height="23.713" viewBox="0 0 24.792 23.713"><path d="M14.5,3.811c.207-.419.544-.419.751,0l2.894,5.871a1.8,1.8,0,0,0,1.213.881l6.475.942c.463.066.566.388.232.712l-4.685,4.575a1.815,1.815,0,0,0-.464,1.427l1.107,6.449c.08.459-.195.657-.607.441l-5.79-3.057a1.81,1.81,0,0,0-1.5,0L8.334,25.1c-.412.217-.678.019-.607-.441l1.1-6.453a1.806,1.806,0,0,0-.463-1.427L3.678,12.208c-.327-.322-.222-.639.236-.7l6.476-.942a1.806,1.806,0,0,0,1.217-.878Z" transform="translate(-2.479 -2.497)" fill="none" stroke="#656565" stroke-miterlimit="10" stroke-width="2"/></svg>