<svg id="レイヤー_1" data-name="レイヤー 1" xmlns="http://www.w3.org/2000/svg" viewBox="0 0 24.79 23.71"><defs><style>.cls-1{fill:none;stroke:#fff;stroke-miterlimit:10;stroke-width:2px;}</style></defs><title>fav_w</title><path class="cls-1" d="M12,1.31c.21-.41.54-.41.75,0l2.9,5.88a1.82,1.82,0,0,0,1.21.88L23.35,9c.47.06.57.39.24.71L18.9,14.29a1.83,1.83,0,0,0-.46,1.43l1.1,6.45c.08.46-.19.66-.6.44l-5.79-3.05a1.79,1.79,0,0,0-1.5,0l-5.8,3c-.41.22-.67,0-.6-.44l1.1-6.45a1.8,1.8,0,0,0-.47-1.43L1.2,9.71C.87,9.39,1,9.07,1.43,9l6.48-.94a1.8,1.8,0,0,0,1.22-.88Z"/></svg>