<svg id="レイヤー_1" data-name="レイヤー 1" xmlns="http://www.w3.org/2000/svg" viewBox="0 0 112 112"><defs><style>.cls-1{fill:#333;}</style></defs><title>icon_tw</title><path class="cls-1" d="M47.84,73.9c16.6,0,25.68-13.75,25.68-25.67,0-.4,0-.78,0-1.18A18.42,18.42,0,0,0,78,42.36a18,18,0,0,1-5.18,1.42,9.07,9.07,0,0,0,4-5A18.23,18.23,0,0,1,71.05,41a9,9,0,0,0-15.4,8.26,25.64,25.64,0,0,1-18.58-9.43,9,9,0,0,0,2.79,12,8.93,8.93,0,0,1-4.1-1.12v.11A9,9,0,0,0,43,59.69a9.15,9.15,0,0,1-2.38.31,8.82,8.82,0,0,1-1.7-.16,9,9,0,0,0,8.43,6.27A18.08,18.08,0,0,1,36.16,70,19.23,19.23,0,0,1,34,69.85,25.6,25.6,0,0,0,47.84,73.9"/><path class="cls-1" d="M56,6A50,50,0,1,1,6,56,50.06,50.06,0,0,1,56,6m0-6a56,56,0,1,0,56,56A56,56,0,0,0,56,0Z"/></svg>