<svg id="レイヤー_1" data-name="レイヤー 1" xmlns="http://www.w3.org/2000/svg" viewBox="0 0 112 112"><defs><style>.cls-1{fill:#333;}</style></defs><title>icon_insta</title><path class="cls-1" d="M56,6A50,50,0,1,1,6,56,50,50,0,0,1,56,6m0-6a56,56,0,1,0,56,56A56,56,0,0,0,56,0Z"/><path class="cls-1" d="M69.11,87.57H42.89A18.48,18.48,0,0,1,24.43,69.11V42.89A18.48,18.48,0,0,1,42.89,24.43H69.11A18.48,18.48,0,0,1,87.57,42.89V69.11A18.48,18.48,0,0,1,69.11,87.57ZM42.89,30.32A12.59,12.59,0,0,0,30.32,42.89V69.11A12.59,12.59,0,0,0,42.89,81.68H69.11A12.59,12.59,0,0,0,81.68,69.11V42.89A12.59,12.59,0,0,0,69.11,30.32Z"/><path class="cls-1" d="M76.8,39.16a3.93,3.93,0,1,1-3.93-3.93A3.93,3.93,0,0,1,76.8,39.16Z"/><path class="cls-1" d="M56,72.32A16.32,16.32,0,1,1,72.32,56,16.34,16.34,0,0,1,56,72.32Zm0-26.75A10.43,10.43,0,1,0,66.43,56,10.44,10.44,0,0,0,56,45.57Z"/></svg>