<svg id="レイヤー_1" data-name="レイヤー 1" xmlns="http://www.w3.org/2000/svg" viewBox="0 0 112 112"><defs><style>.cls-1{fill:#333;}</style></defs><title>icon_line</title><g id="FULL_COLOR_ICON" data-name="FULL COLOR ICON"><g id="TYPE_A" data-name="TYPE A"><path class="cls-1" d="M45.37,44H41.83a1,1,0,0,0-1,1V67a1,1,0,0,0,1,1h3.54a1,1,0,0,0,1-1V45a1,1,0,0,0-1-1"/><path class="cls-1" d="M69.76,44H66.21a1,1,0,0,0-1,1V58.07L55.15,44.45l-.08-.1h0L55,44.28h0l-.06-.05,0,0,0,0,0,0-.06,0h0l-.05,0h0l0,0H50.78a1,1,0,0,0-1,1V67a1,1,0,0,0,1,1h3.55a1,1,0,0,0,1-1V53.93l10.1,13.64a.82.82,0,0,0,.25.24h0l.06,0h0l0,0,0,0h0L66,68h0a1.09,1.09,0,0,0,.25,0h3.55a1,1,0,0,0,1-1V45a1,1,0,0,0-1-1"/><path class="cls-1" d="M36.83,62.48H27.21V45a1,1,0,0,0-1-1H22.68a1,1,0,0,0-1,1V67h0a1,1,0,0,0,.27.68v0h0a1,1,0,0,0,.68.28H36.83a1,1,0,0,0,1-1V63.46a1,1,0,0,0-1-1"/><path class="cls-1" d="M89.32,49.52a1,1,0,0,0,1-1V45a1,1,0,0,0-1-1H75.17a1,1,0,0,0-.68.28h0v0a1,1,0,0,0-.27.68h0V67h0a1,1,0,0,0,.27.68v0h0a1,1,0,0,0,.68.28H89.32a1,1,0,0,0,1-1V63.46a1,1,0,0,0-1-1H79.7V58.76h9.62a1,1,0,0,0,1-1V54.23a1,1,0,0,0-1-1H79.7V49.52Z"/></g></g><path class="cls-1" d="M56,6A50,50,0,1,1,6,56,50.06,50.06,0,0,1,56,6m0-6a56,56,0,1,0,56,56A56,56,0,0,0,56,0Z"/></svg>