<svg id="SMA_TICKET" data-name="SMA TICKET" xmlns="http://www.w3.org/2000/svg" viewBox="0 0 340.16 41.64"><defs><style>.cls-1{fill:#231815;}</style></defs><title>sma_logo_black</title><path class="cls-1" d="M78.09,34A11.35,11.35,0,0,0,87,38c4.13,0,7.2-2.48,7.2-6.37,0-9.86-16.05-7.57-16.05-17.89C78.13,8,83,4.91,88,4.91a12.06,12.06,0,0,1,8.52,3.48l-1.83,2.34a9.1,9.1,0,0,0-6.65-2.84c-3.3,0-6.51,1.79-6.51,5.5,0,8.3,16.14,5.83,16.14,18.16,0,4.72-4,9.45-11,9.45-4.82,0-9.13-2.62-10.55-4.59Z"/><path class="cls-1" d="M138.53,40.35l-2.25-24c0-.23-.05-1.29-.05-1.47-.09.18-.41,1.05-.55,1.24l-13,25.54-13-25.54a8.92,8.92,0,0,1-.55-1.29,5.57,5.57,0,0,1,0,1.52l-2.2,24h-3.44l3.8-35.67L122.07,33a10.58,10.58,0,0,1,.68,1.69A9.8,9.8,0,0,1,123.4,33L138.16,4.68,142,40.35Z"/><path class="cls-1" d="M174.49,40.35l-4.08-9.26h-17l-4.13,9.26h-3.57L162,4.59l16.09,35.76ZM162.75,13.8a13.23,13.23,0,0,1-.83-2.11c-.13.42-.55,1.52-.82,2.11l-6.33,14.31h14.31Z"/><path class="cls-1" d="M196.47,40.35V8.62H186.38V5.69h23.48V8.62H199.77V40.35Z"/><path class="cls-1" d="M215.28,40.35V5.64h3.3V40.35Z"/><path class="cls-1" d="M256.82,36.64A17,17,0,0,1,245.13,41,18,18,0,1,1,245,5a17.12,17.12,0,0,1,11.74,4.49l-1.83,2.39C252.83,9.77,249.62,8,244.62,8c-8.16,0-14.39,6.23-14.39,15.22A14.78,14.78,0,0,0,245.17,38a14.57,14.57,0,0,0,10.09-3.57Z"/><path class="cls-1" d="M285.16,40.35l-17.28-15.5v15.5h-3.3V5.64h3.3V21.19l15.4-15.55h4.45L270.58,22.88l19.77,17.47Z"/><path class="cls-1" d="M294.89,40.31V5.69h18V8.62H298.19V20.27H310v3H298.19V37.37h16.19v2.94Z"/><path class="cls-1" d="M326.77,40.35V8.62H316.68V5.69h23.48V8.62H330.07V40.35Z"/><path class="cls-1" d="M40.73,10a.91.91,0,0,0,.65-1.12.92.92,0,0,0-1.77.47A.92.92,0,0,0,40.73,10Z"/><path class="cls-1" d="M41.39,12.51a.92.92,0,1,0-1.12-.65A.91.91,0,0,0,41.39,12.51Z"/><path class="cls-1" d="M41.58,13.21a.91.91,0,1,0,1.12.64A.91.91,0,0,0,41.58,13.21Z"/><path class="cls-1" d="M54.1,1.24A1.67,1.67,0,0,0,52.05.06L40.48,3.16l.15.56a1.52,1.52,0,0,1-.16,1.16,1.5,1.5,0,0,1-.93.72,1.54,1.54,0,0,1-1.88-1.09L37.51,4,1.24,13.67A1.68,1.68,0,0,0,.06,15.72l5.09,19V30.24l-4-14.82a.52.52,0,0,1,.36-.63L36.75,5.36a2.75,2.75,0,0,0,1,1.09,2.78,2.78,0,0,0,1.14.34s0,.09,0,.14a.92.92,0,0,0,1.77-.48.45.45,0,0,1-.06-.12,2.63,2.63,0,0,0,.82-.87A2.71,2.71,0,0,0,41.84,4L52.35,1.18a.51.51,0,0,1,.63.36L56.59,15h1.2Z"/><path class="cls-1" d="M60.2,15.8h-12v.58a1.53,1.53,0,1,1-3.06,0V15.8H7.6a1.68,1.68,0,0,0-1.68,1.67V39A1.68,1.68,0,0,0,7.6,40.7H60.2A1.68,1.68,0,0,0,61.87,39V17.47A1.67,1.67,0,0,0,60.2,15.8ZM60.71,39a.51.51,0,0,1-.51.52H47.58s0,0,0-.07a.91.91,0,1,0-1.82,0s0,.05,0,.07H7.6A.52.52,0,0,1,7.08,39V17.47A.51.51,0,0,1,7.6,17H44.05a2.71,2.71,0,0,0,1.74,2s0,.08,0,.12a.91.91,0,0,0,1.82,0,.5.5,0,0,0,0-.12,2.71,2.71,0,0,0,1.74-2H60.2a.51.51,0,0,1,.51.51Z"/><path class="cls-1" d="M46.68,20.68a.92.92,0,1,0,.91.92A.92.92,0,0,0,46.68,20.68Z"/><path class="cls-1" d="M46.68,23.24a.91.91,0,1,0,.91.91A.91.91,0,0,0,46.68,23.24Z"/><path class="cls-1" d="M46.68,25.79a.92.92,0,1,0,.91.91A.91.91,0,0,0,46.68,25.79Z"/><path class="cls-1" d="M46.68,28.34a.92.92,0,1,0,.91.92A.92.92,0,0,0,46.68,28.34Z"/><path class="cls-1" d="M46.68,30.9a.91.91,0,1,0,.91.91A.91.91,0,0,0,46.68,30.9Z"/><path class="cls-1" d="M46.68,33.45a.92.92,0,1,0,.91.91A.91.91,0,0,0,46.68,33.45Z"/><path class="cls-1" d="M46.68,36a.92.92,0,1,0,.91.92A.92.92,0,0,0,46.68,36Z"/><path class="cls-1" d="M17.92,28.83a3.64,3.64,0,0,1-2.68-1.17l0-.05.59-.72.06.07a2.69,2.69,0,0,0,2.14.95,1.51,1.51,0,0,0,1.69-1.49c0-1.15-.92-1.6-1.9-2.08s-2.07-1-2.07-2.34a2.34,2.34,0,0,1,2.54-2.26,3.06,3.06,0,0,1,2.17.88l0,.06-.56.71-.07-.07a2.12,2.12,0,0,0-1.58-.68,1.36,1.36,0,0,0-1.53,1.28c0,.87.77,1.23,1.66,1.65,1.09.52,2.34,1.11,2.34,2.84A2.58,2.58,0,0,1,17.92,28.83Z"/><path class="cls-1" d="M23.37,22.65l-.55,6h-1l1-9.19,3.79,7.25.09.2a2.16,2.16,0,0,1,.09-.2l3.78-7.26,1,9.2h-1l-.57-6-3.27,6.44Z"/><path class="cls-1" d="M39.17,28.67l-1.08-2.34L34,26.38,33,28.62l-1,.05h-.13l4.15-9.14,4.11,9.14Zm-1.46-3.2-1.52-3.42c0-.07-.08-.19-.13-.29,0,.1-.08.22-.12.3l-1.51,3.41Z"/><polygon class="cls-1" points="16.5 36.06 16.5 30.98 14.83 30.98 14.83 30.17 19.07 30.17 19.07 30.98 17.4 30.98 17.4 36.06 16.5 36.06"/><rect class="cls-1" x="19.74" y="30.16" width="0.9" height="5.9"/><path class="cls-1" d="M24.72,36.17a3.06,3.06,0,1,1-.06-6.12,3,3,0,0,1,2.07.79l.05.06-.51.64-.06-.07a2.16,2.16,0,0,0-1.61-.59,2.12,2.12,0,0,0-2.12,2.27,2.22,2.22,0,0,0,2.24,2.2,2.32,2.32,0,0,0,1.58-.53l.07-.07.43.62-.05.05A2.93,2.93,0,0,1,24.72,36.17Z"/><polygon class="cls-1" points="31.16 36.06 28.5 33.72 28.5 36.06 27.6 36.06 27.6 30.16 28.5 30.16 28.5 32.53 30.76 30.19 31.75 30.16 31.95 30.16 29.04 33.07 32.45 36.06 31.16 36.06"/><polygon class="cls-1" points="32.71 36.05 32.71 30.17 36.01 30.17 36.01 30.98 33.61 30.98 33.61 32.51 35.54 32.51 35.54 33.33 33.61 33.33 33.61 35.25 36.25 35.24 36.25 36.05 32.71 36.05"/><polygon class="cls-1" points="38.16 36.06 38.16 30.98 36.49 30.98 36.49 30.17 40.73 30.17 40.73 30.98 39.06 30.98 39.06 36.06 38.16 36.06"/></svg>