<svg id="SMA_TICKET" data-name="SMA TICKET" xmlns="http://www.w3.org/2000/svg" viewBox="0 0 340.16 41.64"><defs><style>.cls-1{fill:#fff;}</style></defs><title>sma_logo_white</title><path class="cls-1" d="M78.09,34A11.32,11.32,0,0,0,87,38c4.13,0,7.2-2.48,7.2-6.38,0-9.85-16.05-7.56-16.05-17.88C78.13,8,83,4.91,88,4.91a12.06,12.06,0,0,1,8.52,3.48l-1.83,2.34a9.1,9.1,0,0,0-6.65-2.84c-3.3,0-6.51,1.79-6.51,5.5,0,8.3,16.14,5.82,16.14,18.16,0,4.72-4,9.44-11,9.44-4.82,0-9.13-2.61-10.55-4.58Z"/><path class="cls-1" d="M138.53,40.35l-2.25-24c0-.22-.05-1.28-.05-1.46-.09.18-.41,1.05-.55,1.24l-13,25.54-13-25.54a9.42,9.42,0,0,1-.55-1.29,5.5,5.5,0,0,1,0,1.51l-2.2,24h-3.44l3.8-35.67L122.06,33a9.39,9.39,0,0,1,.69,1.69A9.49,9.49,0,0,1,123.4,33L138.16,4.68,142,40.35Z"/><path class="cls-1" d="M174.49,40.35l-4.08-9.26h-17l-4.13,9.26h-3.57L162,4.59l16.09,35.76ZM162.75,13.8a13.23,13.23,0,0,1-.83-2.11c-.13.42-.55,1.52-.82,2.11l-6.33,14.31h14.31Z"/><path class="cls-1" d="M196.47,40.35V8.62H186.38V5.69h23.48V8.62H199.77V40.35Z"/><path class="cls-1" d="M215.28,40.35V5.64h3.3V40.35Z"/><path class="cls-1" d="M256.82,36.64A17,17,0,0,1,245.13,41,18,18,0,1,1,245,5a17.12,17.12,0,0,1,11.74,4.49l-1.83,2.39C252.83,9.77,249.62,8,244.62,8c-8.16,0-14.39,6.24-14.39,15.23A14.79,14.79,0,0,0,245.17,38a14.62,14.62,0,0,0,10.09-3.57Z"/><path class="cls-1" d="M285.16,40.35l-17.28-15.5v15.5h-3.3V5.64h3.3V21.18l15.4-15.54h4.45L270.58,22.88l19.77,17.47Z"/><path class="cls-1" d="M294.89,40.31V5.69h18V8.62H298.19V20.27H310v3H298.19V37.37h16.19v2.94Z"/><path class="cls-1" d="M326.77,40.35V8.62H316.68V5.69h23.48V8.62H330.07V40.35Z"/><path class="cls-1" d="M54.1,1.24a1.62,1.62,0,0,0-.78-1A1.62,1.62,0,0,0,52.05.06L40.47,3.16l.16.56A1.55,1.55,0,0,1,39.54,5.6a1.52,1.52,0,0,1-1.16-.16,1.5,1.5,0,0,1-.72-.93L37.51,4,1.24,13.67a1.65,1.65,0,0,0-1,.78,1.62,1.62,0,0,0-.17,1.27L4.93,33.91V17.47A2.68,2.68,0,0,1,7.6,14.8H41.27a.88.88,0,0,1-.33-.47.9.9,0,0,1,.64-1.12.92.92,0,0,1,1.12.64.9.9,0,0,1-.32,1h3.76v1.57a.54.54,0,1,0,1.08,0V14.8H57.73ZM39,6.93a.92.92,0,1,1,1.12.64A.91.91,0,0,1,39,6.93Zm.66,2.46a.92.92,0,1,1,1.12.65A.92.92,0,0,1,39.61,9.39Zm1.78,3.12A.92.92,0,1,1,42,11.39.92.92,0,0,1,41.39,12.51Z"/><path class="cls-1" d="M46.7,18.13h0Z"/><path class="cls-1" d="M60.2,16H48.44v.35a1.76,1.76,0,0,1-1.74,1.76.91.91,0,0,1,0,1.82.91.91,0,0,1-.91-.91.9.9,0,0,1,.89-.91,1.76,1.76,0,0,1-1.74-1.76V16H7.6a1.45,1.45,0,0,0-1.45,1.45V39A1.45,1.45,0,0,0,7.6,40.47H60.2A1.46,1.46,0,0,0,61.65,39V17.47A1.46,1.46,0,0,0,60.2,16ZM36.08,19.54l4.19,9.33h-1.1L38,26.49,34,26.58l-.89,2.2-1,.09h-.13Zm-13.34-.12s3.9,7.47,3.91,7.51l0-.08,3.87-7.43,1,9.38-1.08.07L29.88,23l-3.23,6.36L23.4,23c-.09,1-.53,5.82-.53,5.82l-1.08.06ZM17.45,36.26H16.5l-.06-5.14-1.62.06-.05-.87,4.3-.06.05.87-1.73.06Zm2.29,0-.06-6,1-.05.05,6ZM17.91,29a3.7,3.7,0,0,1-2.72-1.2l0,0v-.09l.58-.72.15.08A2.66,2.66,0,0,0,18,28a1.46,1.46,0,0,0,1.64-1.43c0-1.12-.91-1.56-1.87-2s-2.1-1-2.1-2.4a2.4,2.4,0,0,1,2.59-2.32,3.11,3.11,0,0,1,2.22.91l0,0,0,.09-.6.76-.11-.11a2.12,2.12,0,0,0-1.54-.66c-.74,0-1.47.38-1.47,1.22s.75,1.19,1.62,1.6c1.11.53,2.37,1.12,2.37,2.89A2.63,2.63,0,0,1,17.91,29Zm8.87,6.57a3,3,0,0,1-2.07.77,3.12,3.12,0,1,1-.05-6.24,3,3,0,0,1,2.1.81l0,0,0,.09-.55.7-.11-.12a2.16,2.16,0,0,0-3.63,1.64,2.17,2.17,0,0,0,2.19,2.15,2.21,2.21,0,0,0,1.54-.53l0,0h.1l.46.66Zm4.38.66L28.55,34V36.2l-.95.06-.06-6,.95-.05.06,2.28,2.16-2.24,1,0h.35l-3,3,3.52,3Zm5.14,0H32.71l-.06-5.94L36,30.25l.06.87-2.46.06.06,1.47,1.87-.06.06.88-2,.06.06,1.86,2.59-.07,0,.87Zm2.81,0h-1l-.06-5.14-1.61.06-.06-.87,4.3-.06.06.87-1.73.06Zm7.57,4.12a.91.91,0,0,1,0-1.82.91.91,0,0,1,0,1.82Zm0-2.55a.92.92,0,1,1,.91-.91A.91.91,0,0,1,46.68,37.83Zm0-2.55a.92.92,0,1,1,.91-.92A.92.92,0,0,1,46.68,35.28Zm0-2.56a.91.91,0,1,1,0-1.82.91.91,0,1,1,0,1.82Zm0-2.55a.92.92,0,1,1,.91-.92A.92.92,0,0,1,46.68,30.17Zm0-2.56a.91.91,0,1,1,.91-.91A.91.91,0,0,1,46.68,27.61Zm0-2.55a.92.92,0,1,1,.91-.91A.91.91,0,0,1,46.68,25.06Zm0-2.55a.92.92,0,1,1,.91-.92A.92.92,0,0,1,46.68,22.51Z"/><path class="cls-1" d="M36.06,22.05c0,.06-1.58,3.58-1.58,3.58l3.22-.07Z"/></svg>