<?xml version="1.0" encoding="utf-8"?>
<!-- Generator: Adobe Illustrator 24.0.0, SVG Export Plug-In . SVG Version: 6.00 Build 0)  -->
<svg version="1.1" id="レイヤー_1" xmlns="http://www.w3.org/2000/svg" xmlns:xlink="http://www.w3.org/1999/xlink" x="0px"
	 y="0px" viewBox="0 0 800 206.5" style="enable-background:new 0 0 800 206.5;" xml:space="preserve">
<style type="text/css">
	.st0{fill:#E4AA08;}
	.st1{fill:#F7AB00;}
	.st2{fill:#870011;}
</style>
<g>
	<g>
		<path class="st0" d="M634.7,98.7l-8.5,0.3c3.2,2.5,8.8,5.6,11.6,7.2l3.6,2.1c11,6.3,19.7,13.6,25.7,21.7
			c38.8-3.7,66.6-10,91.5-20.6c2.6-1.1,4.9-2.9,6.5-5.1c1.6-0.6,3.1-1.2,4.6-1.9c5.5-2.3,9.3-7.5,9.5-12.9l0.1-4.4l-4.3,0.8
			C740.6,92.5,696.1,96.6,634.7,98.7z"/>
		<path class="st0" d="M692.6,132.5l-17.6-0.3l-6.2-0.1c0,0,0.1,0.1,0.2,0.2c6.5,9.7,9.3,20.3,8,31.3c19.7-2,34.3-4.9,49.8-9.7
			c2.8-0.9,5.4-2.7,7.4-4.8c0.9-0.3,1.8-0.6,2.8-0.9c5.6-1.8,10.5-7,11-11.8l0.4-3.9l-3.9,0.1C724.8,133,709.2,132.8,692.6,132.5z"
			/>
		<path class="st0" d="M136.6,160.7l-0.5-4.4l-1.3-10.9c-0.3-2.7-0.6-5.1-0.8-7l0,0l-0.4-3.1l-0.4-3.1h-3.1l-14.8,0.2
			c-19,0.2-38.7,0.5-59.5,0.2l-4-0.1l0.4,3.9c0.5,4.7,5.4,10,11,11.8c0.9,0.2,1.8,0.5,2.7,0.8c1.9,2.2,4.6,3.9,7.3,4.8
			c19.1,6,41.1,8.8,63.8,11.2l0,0C137,163.9,136.8,162.4,136.6,160.7L136.6,160.7z"/>
		<path class="st0" d="M132.1,124.1L132.1,124.1l-0.4-4.3l-2.3-19.9L129,97l-3-0.2c-28.3-1.6-62.4-4.1-100.9-11L20.9,85l0.1,4.3
			c0.1,5.4,3.9,10.6,9.4,13c1.5,0.6,3,1.2,4.5,1.7c1.6,2.3,3.9,4.1,6.5,5.3c25.1,10.4,55.8,17.3,91.3,20.5L132.1,124.1z"/>
		<path class="st1" d="M794.8,2.9C742.8,30.8,693,46.3,633.2,53c-33.4,3.7-48.1,15.3-54.1,27.1c-1,1.1-1.9,2.2-2.7,3.3l2.2-20.9
			l0.4-4.1l-4.1,0.2c-15.7,0.9-34.8,1.9-52.6,2.6C505.5,61.9,494.4,70,492,83c-1.9,3.3-3,7.1-3.2,11.5c0,0-1.6,29.7-2.9,53.8h-1
			c-15.7-0.7-28.5-1.1-38.3-1.3c0.4-15.1,1.8-72.1,1.8-80.1v-3.4l-3.4-0.1c-0.1,0-10.5-0.4-18-0.4c-9.9,0-15.6,5.7-15.6,15.7
			c0,0.9,0,2.2,0,3.9c-0.3,1.3-0.4,2.5-0.4,3.9c0,4.1-0.1,18.2-0.2,33.9c-0.6-5-2.7-9.1-5.7-12.1c-3.6-3.6-8.9-5.5-15.3-5.5h-28.3
			h-3.7l0.6,34.1H377l0.1,13.4c-1.7,0.5-4.2,0.9-6,0.9c-8.4-0.2-13.1-4.7-15.5-13c-0.7-4.1-1-8.8-1.2-14.1
			c-0.4-10.5-0.2-23.3,4.6-28.3c1.6-1.7,3.7-2.5,6.6-2.5c3.3,0,6.2,0.9,7.7,2.5c0.7,0.7,1.1,1.5,1.1,2.3v3.4h3.4h27.8h3.6l0.1-7.2
			v-3.5c0-13.9-12.2-30.2-46.6-30.5c-14.6,0.1-26.1,4.4-33.9,12.8c-9.4,10-13.7,25.8-12.7,46.9c0.1,2.3,0.4,4.5,0.7,6.6L300.5,83
			c-0.3-0.7-0.6-1.5-1-2.2l-2.1-5.6c-3.1-8.4-10.1-13.6-18.2-13.8c-5.9-0.1-22.9-0.9-23.1-0.9l-2.9-0.1l-0.7,2.8
			c-2.8,11.3-5.4,22-8,32.3l-0.5-2.1c-1.2-4.7-3.4-8.9-6.6-12.7C231,66.5,213.8,56.9,191,55.3C120.5,50.2,58.1,32.6,5.3,3L0,0v6
			c0,7.3,2.7,13.1,8.2,18c3.8,3.3,7.8,6.5,12,9.6c26.5,23.3,69.5,43.2,114.1,53.3l3.8,34.1c2,18.7,3.8,35,4.5,39.9
			c2.5,17.6,8.3,29.2,17.6,35.4c1.7,1.1,3.4,2.1,5.4,2.8c0.6,0.5,1.2,0.9,1.8,1.3c10,6.7,24,7.3,45.5,1.9l19.6-4.7
			c10.1-2.4,19.7-4.7,30.1-7.6l2-0.5l0.4-2.1c5.3-25.9,9.2-47,12.9-68.2l5.8,21.6l9.7,36.1l0.8,2.9c0,0,1-0.1,1.9-0.2l0.5,2l0.8,2.9
			l3-0.4c9.1-1.2,19.8-2.4,32-3.6l4.4-0.4l-1.5-4.1l-4.9-13.1c11.5,15.4,28.7,18.6,40.4,18.8c13.9-0.1,27.9-4.8,37.8-12.7l1.7-1.3
			c0,4.1-0.1,6.6-0.1,6.8v3.4h3.4c20.6,0.2,51.2,1.6,67.3,3.9l3.7,0.6v-0.2c0.9,0.1,2.7,0.4,2.7,0.4c12,1.4,35.4,4.4,57.1,9.1
			c7.3,1.6,15.6,3.6,24.5,5.8c12.5,3.1,25.4,6.3,36,8.2c16,2.9,29.7-0.8,39.7-7.7c13.4-6.1,22.5-17.3,25.7-29.2
			c5.4-20.7-6.2-40.9-31.6-55.5l-3.6-2.1c-10.9-6.1-17.6-10.2-17-15.4c1.8-0.7,4.1-1.2,7.1-1.7c67.2-9.3,115-28,154.8-60.7
			c0.6-0.5,1.2-1,1.7-1.6c3.4-2.5,6.8-5.1,10-7.8c5.6-4.5,8.3-10.4,8.3-18V0.1L794.8,2.9z M227.5,160.3c-9.6,1.9-22.9,4.3-34.3,5.9
			c-0.8,0.1-1.5,0.2-2.2,0.2c-0.2-0.8-0.4-1.7-0.5-2.7l-0.3-2.4c-0.5-4.1-1.6-13.3-2.8-25.8c14.1,1.1,28.4,1.8,42.5,2.1l3.6,0.1
			C231.6,145,229.6,152.5,227.5,160.3z M233.7,137c-0.1-1.1-0.3-3.1-0.3-3.1l-1.5-16.2l-0.7-7.7l-0.3-3l-3-0.1c-0.5,0-1,0-1.5,0
			L226,103l-0.3-3.1l-3.2-0.1c-14.2-0.2-26.8-0.4-38.3-0.8v-0.3l-0.4-3.9c22.4,1.8,43,2.8,56.8,2.9h3.3
			C240.5,110.9,237.2,123.8,233.7,137z M527.3,99.2c11.3-0.1,24-0.6,40.1-1.4h3.1c-0.1,0.4-0.1,0.8-0.2,1.2
			c-0.1,0.3-0.1,0.7-0.1,1.1c-0.7,0-3.8,0-3.8,0l-39.2,0.2C527.3,99.9,527.3,99.5,527.3,99.2z M618.8,165.2
			c-0.1,0.3-0.2,0.6-0.3,0.8c-1.5,0.4-2.9,0.4-3.5,0.4c-8.7-0.4-24-2.8-45.5-7.1c-15.8-3.1-32.1-5.7-46.1-7.3
			c0.3-5.1,0.7-10.8,1.1-16.2h35.1h3.1l0.4-3c0.1-1.1,0.2-2.1,0.3-3.2h1.3h3.1l0.3-3.1c0.4-3.9,0.7-7.7,1-11.4
			c0.3-3.7,0.5-7.4,1-11.1l0.1-0.7c-0.6,21.2,14.1,32.6,28.9,41C619.1,155.7,620.4,159.6,618.8,165.2z"/>
	</g>
	<g>
		<g>
			<path class="st2" d="M229.2,41.4c0,0.6,0.2,1.2,2,1.3v0.9h-14.7v-0.9c1.8-0.1,2-0.6,2-1.3V8.2c0-0.6-0.2-1.1-2-1.3V6.1h26.1
				c10.5,0,15,3.7,15,11.8c0,6.6-4.3,10-10.2,11.7l8.4,11.8c0.6,1,1.3,1.3,2.1,1.3v0.9h-14.8v-0.9c1,0,1.6-0.4,1.6-1.3
				c0-0.6-7.6-10.5-8.5-12h-7V41.4z M229.2,21.9h12c4.2,0,5.5-1.8,5.5-3.9s-1.3-3.9-5.5-3.9h-12V21.9z"/>
			<path class="st2" d="M283,35.4c-1.8,5.2-2.3,6.1-2.3,6.6c0,0.4,0.3,0.7,1.3,0.7v0.9h-12.6v-0.9c1-0.2,1.4-0.5,1.8-1.6
				c0.6-1.7,12.7-33,12.7-33.4c0-0.5-0.8-0.7-1.5-0.7V6.1H301v0.8c-0.7,0.1-1.3,0.2-1.3,0.9c0,0.6,8.8,21.9,13.2,32.7
				c0.7,1.7,1.1,2.1,2,2.1v0.9h-14v-0.9c1,0,1.3-0.4,1.3-0.9c0-0.3-2.1-5.5-2.4-6.4H283V35.4z M284.7,29.7H298l-6.9-17L284.7,29.7z"
				/>
			<path class="st2" d="M356.1,43.6v-0.9c0.8,0,1.3,0,1.3-0.9s-8.7-13.4-9.8-15.2l-6.9,6.3v8.5c0,0.6,0.2,1.2,2,1.3v0.9H328v-0.9
				c1.8-0.1,2-0.6,2-1.3V8.2c0-0.6-0.2-1.1-2-1.3V6.1h14.7v0.8c-1.8,0.1-2,0.6-2,1.3V21h0.5c5.7-5.6,14-12.4,14-13.2
				c0-0.9-0.5-0.9-1.3-0.9V6.1h18.2v0.8c-1.9,0.1-2.3,0.7-4,2.3l-12.3,10.6l14.6,21.7c0.7,1.1,1.4,1.1,2.3,1.1v0.9L356.1,43.6
				L356.1,43.6z"/>
			<path class="st2" d="M414.6,8.2c0-0.6-0.2-1.1-2-1.3V6.1h14.7v0.8c-1.8,0.1-2,0.6-2,1.3v19.1c0,12.5-8.8,16.6-19.7,16.6
				c-11,0-19.7-4.1-19.7-16.6V8.2c0-0.6-0.2-1.1-2-1.3V6.1h14.6v0.8c-1.8,0.1-2,0.6-2,1.3v19.1c0,5.5,3.4,7.7,9.1,7.7
				c5.6,0,9-2.2,9-7.7V8.2z"/>
			<path class="st2" d="M452,43.6v-0.9c1.8-0.1,2-0.6,2-1.3V14.7h-12.2c-0.8,0-1.1,0.4-1.3,2h-0.8V4.1h0.8c0.2,1.6,0.5,2,1.3,2H477
				c0.8,0,1.1-0.4,1.3-2h0.9v12.7h-0.9c-0.2-1.6-0.5-2-1.3-2h-12.2v26.6c0,0.6,0.2,1.2,2,1.3v0.9C466.8,43.6,452,43.6,452,43.6z"/>
			<path class="st2" d="M520.1,29.8h-0.9c-0.2-0.9-0.7-1.6-2.1-1.6h-13.3v6.6h22.9c0.8,0,1-0.4,1.3-2.2h0.8V45H528
				c-0.2-1.2-0.5-1.5-1.3-1.5h-35.5v-0.9c1.8-0.1,2-0.6,2-1.3V8.2c0-0.6-0.2-1.1-2-1.3V6.1h35.5c0.8,0,1-0.4,1.3-2h0.8v12.4H528
				c-0.2-1.7-0.5-2-1.3-2h-22.9v5.9h13.3c1.5,0,1.9-0.7,2.1-1.6h0.9L520.1,29.8L520.1,29.8z"/>
			<path class="st2" d="M545,8.2c0-0.6-0.2-1.1-2-1.3V6.1h17.2v0.8c-1.6,0.1-2,0.5-2,0.9c0,0.8,12.3,13.9,17.4,19.4v-19
				c0-0.8-0.6-1.2-1.5-1.3V6.1h13v0.8c-1.8,0.1-2,0.6-2,1.3v33.2c0,0.6,0.2,1.2,2,1.3v0.9h-13.5v-0.9c1.3,0,1.7-0.3,1.7-0.8
				c0-0.9-1.8-1.9-20.6-22.9v22.4c0,0.6,0.2,1.2,2,1.3v0.9H543v-0.9c1.8-0.1,2-0.6,2-1.3V8.2z"/>
		</g>
	</g>
	<g>
		<path class="st2" d="M406.9,123.5c-0.1,12.6-0.2,37.6-0.2,37.6c-8.3,6.7-21.9,12.1-36.6,12.3c-21.7-0.3-47.3-10.8-50.4-53.4
			c-2.1-42.6,18.1-55.8,43.1-56c31.9,0.3,43.2,14.5,43.2,27c-10.6,0-18.2,0-28.8,0c0-5.1-5.6-8.4-12.5-8.4
			c-14,0-15.8,15.4-15.2,35.4c0.9,20,3.8,36.6,21.8,36.9c2.6-0.1,7.7-0.9,9.5-2.2c0-8.7-0.1-16.5-0.3-25.3c-6,0-12.7,0-18.7,0
			c-0.2-7.1-0.1-13.9-0.4-21c0,0,21.1,0,28.3,0C399.3,106.3,406.9,110.9,406.9,123.5z M444.8,66.9c0,0-10.4-0.4-17.9-0.4
			c-7.6,0-12,3.9-12,12.2c0,11-0.7,90.7-0.7,90.7c19.3,0.2,51.9,1.6,69.7,4.1l0.9-21.8c-13.5-0.6-29.5-1.3-41.8-1.4
			C443,150.5,444.8,76,444.8,66.9z M10.6,21.3c28.8,25.4,77.2,47,126.3,56.4c3.3,28.3,8,73.8,9.3,82.5c5.5,37.7,25.1,43.4,60.2,34.5
			c17.8-4.5,33.6-7.8,51.2-12.6c6.7-33.4,11.5-59.2,16.8-90.4c7.8,30.1,15.1,56,22.5,84.2c11.4-1.6,23.5-2.8,33.2-3.7
			c0,0-22.2-58.9-35.9-95.7c-2.8-7.7-9-11.4-15-11.5S256,64.1,256,64.1c-8.5,34.3-15.8,62.6-25.6,99.2c-9.5,1.9-24.1,4.6-36.6,6.4
			c-9.1,1.3-12.3-3.4-13.1-11c-0.2-2.2-1.9-14.6-3.5-33.2c16.2,1.3,32.1,2.2,47.7,2.5c-0.8-8.3-1.5-16.3-2.3-24.6
			c-16.7-0.3-32.4-0.6-47.5-1.1c-0.7-7.1-1.3-13.3-1.8-18.7c21.6,1.7,45.6,3.1,62.5,3.3c-4.2-17.2-23.6-26.4-45.1-28
			C123.2,54,59.6,37.4,3.6,6C3.6,12.2,5.9,17.1,10.6,21.3z M125.9,100.3C95,98.6,61.8,96,24.5,89.3c0.1,3.6,2.7,7.9,7.3,9.8
			c25.4,10.6,57.8,18,96.4,21.2L125.9,100.3z M130.1,135.8c-24.1,0.3-48.2,0.8-74.4,0.4c0.3,3.3,4.3,7.4,8.6,8.8
			c20.8,6.6,45.3,9.3,68.3,11.7L130.1,135.8z M631.6,83.1c69.4-9.6,118.1-29.2,157.9-61.8c4.9-4,7-9.1,7-15.3
			C744,34.3,694.2,49.7,633.6,56.5c-33.7,3.8-52.2,16.2-54.5,35.4c-2.4,20.4,8.4,32.3,27.7,43.2c19.6,11.1,24.8,16.6,22.1,25.8
			c-1.7,6.7-8.4,9-14,8.9c-11-0.5-29.6-3.8-46.1-7.2c-15.6-3.1-33.2-6-49.2-7.7c0.4-8.7,1.4-20.3,2.1-29c14,0,28.8,0,42.8,0
			c0.8-7.6,1.1-14.9,1.9-22.6c-14.2,0.1-28.9,0.2-43,0.2c0.5-7.3,1-7.9,1.4-15.3c15.1,0,31-0.6,47.6-1.5L575,62
			c-15.7,0.9-34.6,1.8-52.6,2.6c-17.5,0.7-26.8,9.8-27.5,22.5s-4.5,86.9-4.5,86.9c17.5,2,39.7,5.3,59.2,9.4
			c18.5,4,44,11.1,62.2,14.3c27.9,5,49.8-10.4,55-30.2c5.5-21.1-8.6-39.4-30-51.6c-12.3-7-24.1-12.5-22.3-21.7
			C615.7,88.5,620.2,84.7,631.6,83.1z M639.5,103.1l3.7,2c8,4.5,14.8,9.6,20.2,15.1c0.3,0.2,0.5,0.5,0.8,0.7
			c46.2-3.7,76.7-10.3,104.1-21.9c4.6-1.9,7.2-6.2,7.3-9.8c-37.7,7.3-84.7,11-137.9,12.9C638.4,102.5,639,102.8,639.5,103.1z
			 M675,135.8c3.3,6.2,5.2,12.7,5.7,19.4c20.2-1.9,36.9-4.6,55.1-10.2c4.3-1.4,8.2-5.5,8.6-8.8C718.5,136.7,698.8,136.1,675,135.8z"
			/>
	</g>
</g>
</svg>
