<?xml version="1.0" encoding="utf-8"?>
<!-- Generator: Adobe Illustrator 19.2.1, SVG Export Plug-In . SVG Version: 6.00 Build 0)  -->
<svg version="1.0" id="レイヤー_1" xmlns="http://www.w3.org/2000/svg" xmlns:xlink="http://www.w3.org/1999/xlink" x="0px"
	 y="0px" viewBox="0 0 1842.5 992.1" enable-background="new 0 0 1842.5 992.1" xml:space="preserve">
<g>
	<g>
		<g>
			<path d="M678.3,466.3h-56V482c0,11.2-0.9,27.4-6.8,38.5c-0.9-0.9-3-2.2-4.1-2.7c5.7-10.5,6.2-25.2,6.2-35.8v-20.3h27.7v-8.3
				l6.4,0.4c-0.1,0.5-0.4,0.9-1.4,1v6.8h28.2V466.3z M653.1,502.6v11.4h25.4v4.3h-55.8v-4.3h25.6v-11.4H628v-4.3h20.4v-29.1l6.1,0.4
				c-0.1,0.5-0.4,0.9-1.4,1v27.7h21v4.3H653.1z M643.8,493.1c-1.7-2.4-4.9-5.8-8-8.8c-2.1,4.5-4.9,8.2-8.4,10.9
				c-0.8-0.9-2.3-2.2-3.4-2.8c6-4.3,9.7-12.2,11.2-21.7l5.6,0.9c-0.1,0.5-0.5,0.8-1.4,0.9c-0.5,2.8-1.2,5.5-2.1,8
				c3.5,3.1,7.5,7.1,9.4,9.6L643.8,493.1z M675.8,494.6c-2.4-2.8-6.8-7-10.9-10.6c-2.1,4.1-4.9,7.6-8.3,9.9
				c-0.7-0.8-2.2-2.1-3.2-2.7c6-4,9.7-11.5,11.3-20.7l5.5,0.9c-0.1,0.5-0.6,0.8-1.4,0.9c-0.5,2.7-1.2,5.3-2.2,7.7
				c4.4,3.6,9.6,8.3,12.2,11.3L675.8,494.6z"/>
		</g>
		<g>
			<path d="M722.2,460.9h28.4v4.5h-55.8V482c0,11.2-0.9,27.6-7.2,38.6c-0.8-0.9-2.8-2.2-4-2.7c6-10.4,6.5-25.3,6.5-35.9v-21.2h27.1
				v-7.4l6.4,0.4c-0.1,0.5-0.4,0.9-1.4,1V460.9z M739.2,467.9c-0.1,0.5-0.4,0.9-1.4,0.9v5.3h12v4.1h-12v12.1h-12v6.1h20.1v15.7
				c0,5.1-2.3,5.3-13.2,5.3c-0.2-1.3-0.8-3-1.4-4.2c2.4,0.1,4.6,0.1,6.2,0.1c3.4,0,3.7,0,3.7-1.2v-11.3h-15.3v19.8H721v-19.8h-14.7
				v17.1h-4.7v-21.5H721v-6.1h-12.2v-12.1h-11.4v-4.1h11.4v-6.7l6,0.4c-0.1,0.5-0.4,0.9-1.4,0.9v5.3h19.8v-6.7L739.2,467.9z
				 M733.1,486.2v-8h-19.8v8H733.1z"/>
		</g>
		<g>
			<path d="M780.3,485.4l0.6,4.2l-8.7,3.1v21.7c0,5.2-2.4,6-12,5.8c-0.2-1.2-0.9-3.2-1.6-4.5c3.4,0.1,6.5,0.1,7.4,0.1
				c0.9-0.1,1.4-0.4,1.4-1.4v-20.1c-3.4,1.2-6.5,2.2-8.9,3c0,0.6-0.4,1-0.9,1.2l-2-5.7c3.2-0.9,7.3-2.1,11.8-3.5v-16.9h-10.9V468
				h10.9v-14.5l6.2,0.4c-0.1,0.6-0.4,0.9-1.4,1V468h8.3v4.5h-8.3V488L780.3,485.4z M789.4,474.3c0,2.5,0.9,3,5.9,3h17.9
				c4.2,0,5-1.3,5.4-9.4c1.1,0.8,3.1,1.6,4.5,1.8c-0.7,9.6-2.4,12-9.6,12h-18.4c-8.3,0-10.6-1.5-10.6-7.5v-20.8l6.3,0.4
				c-0.1,0.5-0.5,0.9-1.4,1v9.8c9-1.8,18.8-4.5,24.4-6.9l4.2,3.8c-0.2,0.2-0.5,0.3-0.9,0.3c-0.1,0-0.4,0-0.6-0.1
				c-6.5,2.6-17.4,5.1-27.1,6.9V474.3z M785.7,520.4v-32.1h33.1v31.6h-4.8v-3h-23.6v3.5H785.7z M813.9,492.4h-23.6v8h23.6V492.4z
				 M790.3,512.7h23.6v-8.1h-23.6V512.7z"/>
		</g>
		<g>
			<path d="M864,497.8v15.7c3.8,0.7,8,0.9,12.5,0.9c2.5,0,15.2,0,18.5-0.1c-0.8,1.2-1.7,3.5-1.9,4.9h-16.8
				c-15.5,0-26.7-2.7-33.4-15.6c-2.6,7.1-6.3,13-11.3,16.9c-0.8-0.9-2.5-2.4-3.7-3.2c7.9-5.8,12.1-16.8,13.8-30.3l6.2,1
				c-0.1,0.5-0.6,0.9-1.4,0.9c-0.4,2.9-1,5.7-1.7,8.4c3,8.1,7.9,12.4,14.3,14.7v-31.7h-18.4v-4.6H883v4.6h-19v12.7h22.1v4.6H864z
				 M836.2,466.8v10.9h-4.8v-15.5H859v-8.9l6.6,0.4c-0.1,0.5-0.5,0.9-1.5,1v7.4h27.8v15.5h-5v-10.9H836.2z"/>
		</g>
		<g>
			<path d="M907.4,516.3c-2.2-5.2-3.1-15.9-3.1-25.3c0-9.6,1.5-21.6,3.9-33.6l7,1.4c-0.1,0.7-0.9,1.2-1.9,1.3
				c-2.6,9.9-4.2,22.7-4.2,31c0,5.5,0.1,10.9,0.6,13.6c1.6-4.3,4.5-11.2,6-14.6l3.2,3c-2.4,4.9-7.4,15.8-7.4,19.2
				c0,1,0.2,2.1,0.7,3.5L907.4,516.3z M925.7,473.9c6,0.1,12.1,0.1,18.1-0.3c-0.3-6.2-0.5-11.5-0.6-16.8l7.3,0.2
				c-0.1,0.7-0.7,1.3-1.9,1.5c0.1,4.6,0.2,9.3,0.4,14.8c5.7-0.6,10.3-1.6,14.1-2.9l0.6,5c-3.5,1.1-8.4,2.1-14.5,2.6
				c0.3,8,0.6,16.4,0.9,21c5.5,2.2,10.9,5.8,14.7,9.1l-2.8,4.6c-3-3-7.2-6.1-11.7-8.2c-0.1,6.1-1.2,13-12,13c-8.4,0-14-4-14-10.4
				c0-7.3,7.4-10.6,14-10.6c2.2,0,4.6,0.3,6.8,0.9c-0.2-4.5-0.6-12.1-1-19.2c-2.2,0.1-5.3,0.2-7.3,0.2h-10.9L925.7,473.9z
				 M945.4,502.2c-2.3-0.7-4.8-1.3-7.1-1.3c-4.4,0-9.6,1.6-9.6,6.1c0,4,4.3,6,9.6,6c5.3,0,7.3-2.6,7.3-8.4L945.4,502.2z"/>
		</g>
		<g>
			<path d="M975.5,463.2c5.4-0.2,49.8-3.4,59.1-3.5l0.1,5.4c-0.9-0.1-1.8-0.1-2.7-0.1c-4.2,0-7.7,0.7-12.3,3.7
				c-10.8,6.5-21.2,18.1-21.2,27.4c0,10.1,7.1,16.1,24.9,18.4l-2.4,5c-20.4-3-28.1-10.6-28.1-23.4c0-10.2,10-22.5,23.2-30.7
				c-7.9,0.6-29.2,2.2-38.5,3c-0.2,0.6-1,1.1-1.6,1.2L975.5,463.2z M1022.2,477.4c3.5,2.6,7.6,6.8,9.8,9.9l-2.7,2.2
				c-2-3.2-6.4-7.6-9.5-10L1022.2,477.4z M1030,471c3.5,2.6,7.7,6.8,9.8,9.9l-2.7,2.2c-1.9-2.9-6.1-7.3-9.5-9.9L1030,471z"/>
		</g>
		<g>
			<path d="M1106,479.2c-6.5,2.2-14.3,3.6-21.7,4.5c2.2,3.9,6.6,9.3,11.9,11.3l-2.9,4.1c-1-0.5-2.9-1.4-4.2-2.2
				c-1.6-0.6-5.1-1.1-8.5-1.1c-1,0-2,0.1-3,0.1l-1-4c2.4-0.1,6,0,8.1,0.3c-1.9-2.1-4.2-5.2-5.7-8.1c-4.8,0.5-10.2,0.7-19.3,0.7
				c-3.5,0-7.5,0-10.7-0.1l-0.1-4.5c3.2,0.1,7.4,0.1,11,0.1c5.9,0,11.7,0,17.6-0.5c-0.8-2.2-1.9-6.3-2.8-9.6
				c-2.9,0.3-6.1,0.4-9.1,0.4c-3.9,0-8.9,0-12.2-0.1v-4.5c4.3,0.2,9.1,0.2,12.2,0.2c2.6,0,5.5-0.1,8.3-0.4
				c-0.6-3.3-1.4-7.3-1.9-11.3l7.4,0.1c0,0.9-0.6,1.4-1.9,1.6c0.4,3.1,0.9,6.4,1.5,9.2c6.8-0.6,14-2.1,19.3-4.2l1.2,4.5
				c-5.3,1.9-12.4,3.3-19.6,4.1c0.9,3.8,1.9,7.2,2.7,9.4c7.6-0.8,15.9-2.4,22.5-4.8L1106,479.2z M1093.3,517.3
				c-4,0.3-8.7,0.4-15.8,0.4c-11.7-0.1-20.7-3.8-20.6-12c0.1-4.2,3.8-8.8,8.5-11.4l3.2,3.3c-4.2,2.2-6.6,5.3-6.6,8
				c0,5.1,6.3,7.3,15.5,7.4c5.4,0,11.1-0.3,16-0.6L1093.3,517.3z"/>
		</g>
		<g>
			<path d="M1122,464.6c4.5,0.3,10.4,0.3,15.3,0.3c3.2,0,6.9-0.1,9.9-0.1c-0.1-3.5-0.1-7.5-0.1-10l7.3,0.4c-0.1,0.9-0.7,1.3-1.9,1.5
				c-0.1,1.2,0,6.7,0,7.9c8.4-0.4,16.8-1.2,23.9-2.8l0.6,4.8c-7.1,1.6-15.4,2.3-24.6,2.7c0.1,4.3,0.1,8.8,0.3,13.2
				c7-0.4,14.5-1.4,20.3-2.8l0.6,4.7c-6,1.3-13.6,2.2-20.8,2.5l0.6,12c6.6,2.2,13.7,5.9,21.2,11.2l-3.2,4.4
				c-6.5-5.1-12.6-8.6-17.9-10.6c0,1.2,0.1,2.4,0.1,3.4c-0.1,6.8-4.2,10.8-12.9,10.8c-9.1,0-15.8-3.7-15.8-10.5
				c0-6.9,7.8-10.7,15.9-10.7c2.4,0,4.9,0.2,7.6,0.9c-0.1-3.1-0.2-6.8-0.3-10.7c-2.3,0.1-4.9,0.1-7,0.1c-12.3,0-15.8-1.9-15.8-6.1
				c0-2.7,2.1-5,6.7-7.9l3.5,2.2c-3.2,1.8-5,3.4-5,4.8c0,2.2,3.4,2.6,12.5,2.6c1.6,0,3.2,0,4.8-0.1l-0.4-13.3
				c-3.1,0.1-6.7,0.1-9.9,0.1c-4.6,0-11.2,0-15.5-0.1V464.6z M1148.6,502.1c-2.9-0.8-5.5-1.2-8.1-1.2c-5.5,0-11,2.2-11,6.6
				c0,4.2,5,6.3,11.3,6.3c5.7,0,7.8-2.5,7.8-7.6L1148.6,502.1z"/>
		</g>
		<g>
			<path d="M1239,456.1c0,0.7-0.5,1.1-1.6,1.4c0.3,5,0.5,10.9,0.6,16.3c5.7-0.9,11.2-1.8,15.4-2.4l0.4,5c-4.3,0.4-9.9,1.2-15.8,2.2
				c0.1,6.6-0.1,12.5-0.8,16c-0.9,4.2-4,6.7-8.1,6.7c-3,0-7.1-1-11.1-3.2c0.4-1.1,0.6-2.9,0.9-4.2c4,2.2,7.7,2.8,9.4,2.8
				c4.3,0,5-4.2,4.6-17.4c-8.3,1.4-16.9,2.8-23.5,4c0.1,6.8,0.3,13.4,0.6,17.4c0.9,10.9,6.3,11.6,16.6,11.6c5.9,0,13.7-0.4,18.9-1.1
				l0.1,4.9c-5.1,0.6-12.4,0.8-18.4,0.8c-11.2,0-21-0.3-22.2-15.8c-0.4-4-0.5-10.3-0.6-17c-4.5,0.8-10.4,1.9-14,2.7l-0.8-4.8
				c3.8-0.6,9.8-1.7,14.8-2.4c-0.1-6.3-0.1-13-0.1-18.5l7.1,0.6c-0.1,0.8-0.6,1.2-1.8,1.4c-0.1,4.4-0.1,10.2,0,15.6l23.3-3.9
				c-0.2-6.1-0.5-13.1-0.9-18.9L1239,456.1z"/>
		</g>
		<g>
			<path d="M1261.2,515.3c5.3-15.3,14.2-40.8,17-48.4c1.4-3.9,3.2-9.4,3.7-11.2l7.8,2c-0.4,1-1.4,1.4-2.8,1.4
				c-4,9.9-10.1,26.7-12.7,33.9h0.1c4.2-5.2,10.7-8.9,15.8-8.9c6.3,0,9.3,4.2,9.1,10.9l-0.2,8.6c-0.1,5.4,2.8,8.4,7.5,8.4
				c6.5,0,12.5-7.4,15.8-19.8c1.4,1,3.2,1.9,4.7,2.7c-4,13.8-11.1,22.4-20.7,22.4c-7.6,0-12.6-4.6-12.6-12c0-1.4,0.2-8,0.2-9.5
				c0-4.5-1.9-6.9-5-6.9c-8.3,0-16.6,12-18.4,16.7c-1,2.5-2.6,7.1-4,11.3L1261.2,515.3z"/>
		</g>
	</g>
</g>
</svg>
