<?xml version="1.0" encoding="UTF-8" standalone="no"?>
<!-- Created with Inkscape (http://www.inkscape.org/) -->

<svg
   xmlns:dc="http://purl.org/dc/elements/1.1/"
   xmlns:cc="http://creativecommons.org/ns#"
   xmlns:rdf="http://www.w3.org/1999/02/22-rdf-syntax-ns#"
   xmlns:svg="http://www.w3.org/2000/svg"
   xmlns="http://www.w3.org/2000/svg"
   xmlns:sodipodi="http://sodipodi.sourceforge.net/DTD/sodipodi-0.dtd"
   xmlns:inkscape="http://www.inkscape.org/namespaces/inkscape"
   width="100%"
   height="100%"
   viewBox="0 0 2092.4922 2294.0291"
   id="svg73974"
   version="1.1"
   inkscape:version="0.92.0 r15299"
   sodipodi:docname="for_thumbnail_all.svg"
   inkscape:export-filename="C:\Users\nayuta.nayuta\Desktop\20160520_abe\03.チケットスター\10.カートリニューアル\01.screens\hall\for_thumbnail_all.png"
   inkscape:export-xdpi="18.35"
   inkscape:export-ydpi="18.35">
  <title
     id="title74007">rakuten-kobo-stadium-2016-all</title>
  <defs
     id="defs73976" />
  <sodipodi:namedview
     id="base"
     pagecolor="#ffffff"
     bordercolor="#666666"
     borderopacity="1.0"
     inkscape:pageopacity="0.0"
     inkscape:pageshadow="2"
     inkscape:zoom="0.16284207"
     inkscape:cx="-645.98147"
     inkscape:cy="1617.273"
     inkscape:document-units="px"
     inkscape:current-layer="layer2"
     showgrid="false"
     fit-margin-top="0"
     fit-margin-left="0"
     fit-margin-right="0"
     fit-margin-bottom="0"
     inkscape:window-width="1920"
     inkscape:window-height="1017"
     inkscape:window-x="-8"
     inkscape:window-y="-8"
     inkscape:window-maximized="1"
     showguides="true"
     inkscape:guide-bbox="true">
    <sodipodi:guide
       position="0,1200"
       orientation="1,0"
       id="guide4796"
       inkscape:locked="false" />
    <inkscape:grid
       type="xygrid"
       id="grid4798" />
    <sodipodi:guide
       position="1086.9427,2296.7038"
       orientation="0,1"
       id="guide4800"
       inkscape:locked="false" />
    <sodipodi:guide
       position="2097.124,1829.994"
       orientation="1,0"
       id="guide4802"
       inkscape:locked="false" />
    <sodipodi:guide
       position="1710.246,-3.0704597"
       orientation="0,1"
       id="guide4804"
       inkscape:locked="false" />
  </sodipodi:namedview>
  <metadata
     id="metadata73979">
    <rdf:RDF>
      <cc:Work
         rdf:about="">
        <dc:format>image/svg+xml</dc:format>
        <dc:type
           rdf:resource="http://purl.org/dc/dcmitype/StillImage" />
        <dc:title>rakuten-kobo-stadium-2016-all</dc:title>
      </cc:Work>
    </rdf:RDF>
  </metadata>
  <g
     inkscape:groupmode="layer"
     id="layer2"
     inkscape:label="レイヤー"
     style="display:inline"
     transform="translate(-22.015865,322.12662)">
    <rect
       style="opacity:1;fill:#ffffff;fill-opacity:0.8;stroke:#000000;stroke-width:1.82620955;stroke-linejoin:round;stroke-miterlimit:4;stroke-dasharray:none;stroke-dashoffset:0;stroke-opacity:1"
       id="rect4794"
       width="2097.124"
       height="2299.7742"
       x="22.015865"
       y="-324.80136" />
    <g
       style="display:inline"
       id="g4540"
       transform="translate(70.620572,1812.702)">
      <path
         sodipodi:nodetypes="ccccccccccsccccccccccccccccccsccccccccccc"
         inkscape:connector-curvature="0"
         d="m 1055.0476,-368.5037 c 62.516,0 118.2238,-35.6951 154.2734,-91.3498 l 1.4372,-0.4261 95.1472,-25.5975 3.2551,-4.8843 103.124,-144.6001 51.0604,-275.7206 315.5708,-304.8439 6.0573,-5.8145 -444.6529,-476.8815 c 0,0 -3.7776,-1.5064 -5.6719,-2.2487 -86.6289,-33.9438 -182.0098,-52.5798 -280.672,-52.5798 v 36 c 96.9959,-1.7071 207.5422,17.1498 269.9684,45.0843 l 415.5001,454.1766 -307.339,304.2436 -55.3535,266.4376 -100.806,143.3541 -90.8786,26.1066 c 0,0 -33.3045,79.2163 -130.0201,79.2163 h -1.8214 c -96.71563,0 -130.02013,-79.2163 -130.02013,-79.2163 l -90.8786,-26.1066 -100.806,-143.3541 -55.3535,-266.4376 -307.339,-304.2436 415.5001,-454.1766 c 62.4262,-27.9345 172.79396,-46.7914 269.78993,-45.0843 v -36 c -98.66227,0 -193.86463,18.636 -280.49353,52.5798 -1.8943,0.7423 -5.6719,2.2487 -5.6719,2.2487 l -444.6529,476.8815 6.0573,5.8145 315.5708,304.8439 51.0604,275.7206 103.124,144.6001 3.2551,4.8843 95.1472,25.5975 1.4372,0.4261 c 36.0496,55.6547 91.7574,91.3498 154.27343,91.3498 z"
         style="display:inline;fill:#eb6100;fill-opacity:1;stroke:none"
         id="path75195-0-9-8" />
      <path
         sodipodi:nodetypes="cccccccccccccccc"
         inkscape:connector-curvature="0"
         d="m 1053.9762,-1717.4505 c 96.9959,-1.7071 207.5422,17.1498 269.9684,45.0843 l 415.5001,454.1766 -307.339,304.2436 -55.3535,266.4376 -100.806,143.3541 -90.8786,26.1066 c 0,0 -33.3045,79.2163 -130.0201,79.2163 h -1.8214 c -96.71563,0 -130.02013,-79.2163 -130.02013,-79.2163 l -90.8786,-26.1066 -100.806,-143.3541 -55.3535,-266.4376 -307.339,-304.2436 415.5001,-454.1766 c 62.4262,-27.9345 172.79396,-46.7914 269.78993,-45.0843"
         style="display:inline;fill:#16902e;fill-opacity:1;stroke:#16902e;stroke-width:4;stroke-miterlimit:4;stroke-dasharray:none;stroke-opacity:1"
         id="path75195-0-9-8-8" />
      <circle
         transform="matrix(0.24175814,0,0,0.24175814,761.72944,-1011.8141)"
         id="path4286-5"
         style="color:#000000;display:inline;overflow:visible;visibility:visible;fill:#bd771a;fill-opacity:1;stroke:#eb6100;stroke-width:37.22728729;stroke-miterlimit:4;stroke-dasharray:none;stroke-opacity:1;marker:none;enable-background:accumulate"
         cx="1200.0613"
         cy="1134.1165"
         r="152.53304" />
      <circle
         transform="matrix(0.43086588,0,0,0.43086588,534.93648,-1034.4913)"
         id="path4286-5-7"
         style="color:#000000;display:inline;overflow:visible;visibility:visible;fill:#bd771a;fill-opacity:1;stroke:#eb6100;stroke-width:18.56726265;stroke-miterlimit:4;stroke-dasharray:none;stroke-opacity:1;marker:none;enable-background:accumulate"
         cx="1200.0613"
         cy="1134.1165"
         r="152.53304" />
      <path
         sodipodi:nodetypes="cccccccccccscc"
         inkscape:connector-curvature="0"
         id="path4286-6"
         d="m 987.52512,-571.4241 33.46128,-34.8503 -110.36138,-113.8685 c 1.70387,-13.5408 1.39668,-25.7643 0,-39.2857 l 122.41068,-118.3928 c 13.473,2.3806 25.3141,2.322 38.3036,0 l 122.4108,118.3928 c -2.2363,13.4472 -2.2807,26.3167 0,39.2857 l -110.3615,113.8685 33.4614,34.8503 215.7499,-210.1623 c -20.3502,-136.1178 -137.7533,-240.5118 -279.5389,-240.5118 -142.01398,0 -259.5668,104.7304 -279.6367,241.1695 z"
         style="color:#000000;display:inline;overflow:visible;visibility:visible;fill:#eb6100;fill-opacity:1;stroke:#eb6100;stroke-width:4;stroke-miterlimit:4;stroke-dasharray:none;stroke-opacity:1;marker:none;enable-background:accumulate" />
      <path
         sodipodi:nodetypes="cccc"
         inkscape:connector-curvature="0"
         id="path4286-5-7-1"
         d="m 1282.2266,-737.0891 -59.5865,59.5865 c -32.9088,-32.9087 -32.9088,-86.2643 -10e-5,-119.173 z"
         style="color:#000000;display:inline;overflow:visible;visibility:visible;fill:#bd771a;fill-opacity:1;stroke:#bd771a;stroke-width:1.2822026;stroke-miterlimit:4;stroke-opacity:1;marker:none;enable-background:accumulate" />
      <path
         sodipodi:nodetypes="cccc"
         inkscape:connector-curvature="0"
         id="path4286-5-7-1-8"
         d="m 823.79756,-737.0891 59.5865,59.5865 c 32.9088,-32.9087 32.9088,-86.2643 10e-5,-119.173 z"
         style="color:#000000;display:inline;overflow:visible;visibility:visible;fill:#bd771a;fill-opacity:1;stroke:#bd771a;stroke-width:1.2822026;stroke-miterlimit:4;stroke-opacity:1;marker:none;enable-background:accumulate" />
      <path
         sodipodi:nodetypes="cccc"
         inkscape:connector-curvature="0"
         id="path4286-5-7-1-9"
         d="m 1053.0121,-966.1014 59.5865,59.5865 c -32.9087,32.9088 -86.2643,32.9088 -119.17297,10e-5 z"
         style="color:#000000;display:inline;overflow:visible;visibility:visible;fill:#bd771a;fill-opacity:1;stroke:#bd771a;stroke-width:1.2822026;stroke-miterlimit:4;stroke-opacity:1;marker:none;enable-background:accumulate" />
      <path
         sodipodi:nodetypes="ccccc"
         inkscape:connector-curvature="0"
         id="path4404"
         d="m 1043.8596,-740.1735 h 15.9889 v 5.0824 h -15.9889 z"
         style="fill:#ffffff;stroke:#ffffff;stroke-width:1px;stroke-linecap:butt;stroke-linejoin:miter;stroke-opacity:1" />
      <path
         sodipodi:nodetypes="ccccc"
         inkscape:connector-curvature="0"
         id="path4406"
         d="m 1042.097,-911.3744 10.9821,-10.9821 10.8481,10.8481 -10.9821,10.9821 z"
         style="fill:#ffffff;stroke:#ffffff;stroke-width:1px;stroke-linecap:butt;stroke-linejoin:miter;stroke-opacity:1" />
      <path
         sodipodi:nodetypes="ccccc"
         inkscape:connector-curvature="0"
         id="path4406-2"
         d="m 1235.5896,-745.962 10.9821,-10.9821 10.8481,10.8481 -10.9821,10.9821 z"
         style="display:inline;fill:#ffffff;stroke:#ffffff;stroke-width:1px;stroke-linecap:butt;stroke-linejoin:miter;stroke-opacity:1" />
      <path
         inkscape:connector-curvature="0"
         id="path4426"
         d="m 1069.8778,-555.0091 690.3762,-690.3761"
         style="fill:none;stroke:#ffffff;stroke-width:4;stroke-linecap:butt;stroke-linejoin:miter;stroke-miterlimit:4;stroke-dasharray:none;stroke-opacity:1" />
      <path
         inkscape:connector-curvature="0"
         id="path4426-7"
         d="M 1031.8778,-555.0091 343.45088,-1243.4359"
         style="display:inline;fill:none;stroke:#ffffff;stroke-width:4;stroke-linecap:butt;stroke-linejoin:miter;stroke-miterlimit:4;stroke-dasharray:none;stroke-opacity:1"
         sodipodi:nodetypes="cc" />
      <path
         sodipodi:nodetypes="ccccc"
         inkscape:connector-curvature="0"
         id="path4406-2-9"
         d="m 856.1909,-755.9213 10.9821,10.9821 -10.8481,10.8481 -10.9821,-10.9821 z"
         style="display:inline;fill:#ffffff;stroke:#ffffff;stroke-width:1px;stroke-linecap:butt;stroke-linejoin:miter;stroke-opacity:1" />
      <path
         sodipodi:nodetypes="ccccc"
         inkscape:connector-curvature="0"
         id="path4464"
         d="m 1065.4584,-561.4488 h 14.0158 v 33.0825 h -14.0158 z"
         style="fill:none;stroke:#ffffff;stroke-width:4;stroke-linecap:butt;stroke-linejoin:miter;stroke-miterlimit:4;stroke-dasharray:none;stroke-opacity:1" />
      <path
         sodipodi:nodetypes="cc"
         inkscape:connector-curvature="0"
         id="path4466"
         d="m 1068.4889,-526.6933 v 10.7013"
         style="fill:none;stroke:#ffffff;stroke-width:4;stroke-linecap:butt;stroke-linejoin:miter;stroke-miterlimit:4;stroke-dasharray:none;stroke-opacity:1" />
      <path
         sodipodi:nodetypes="ccccc"
         inkscape:connector-curvature="0"
         id="path4464-5"
         d="m 1036.2779,-561.4488 h -14.0158 v 33.0825 h 14.0158 z"
         style="display:inline;fill:none;stroke:#ffffff;stroke-width:4;stroke-linecap:butt;stroke-linejoin:miter;stroke-miterlimit:4;stroke-dasharray:none;stroke-opacity:1" />
      <path
         sodipodi:nodetypes="cc"
         inkscape:connector-curvature="0"
         id="path4466-4"
         d="m 1033.2474,-526.6933 v 10.7013"
         style="display:inline;fill:none;stroke:#ffffff;stroke-width:4;stroke-linecap:butt;stroke-linejoin:miter;stroke-miterlimit:4;stroke-dasharray:none;stroke-opacity:1" />
      <path
         sodipodi:nodetypes="cccccc"
         inkscape:connector-curvature="0"
         id="path4489"
         d="m 1043.8393,-551.75 v 8.9956 l 8.1027,8.1026 8.1027,-8.1026 v -8.9956 z"
         style="fill:#ffffff;stroke:#ffffff;stroke-width:1px;stroke-linecap:butt;stroke-linejoin:miter;stroke-opacity:1" />
      <path
         sodipodi:nodetypes="cccc"
         inkscape:connector-curvature="0"
         id="path4491"
         d="m 1303.4975,-702.2857 -15.0893,-15.0893 -28.0357,28.0357 15.0893,15.0893"
         style="fill:none;stroke:#ffffff;stroke-width:4;stroke-linecap:butt;stroke-linejoin:miter;stroke-miterlimit:4;stroke-dasharray:none;stroke-opacity:1" />
      <path
         sodipodi:nodetypes="cccc"
         inkscape:connector-curvature="0"
         id="path4491-2"
         d="m 796.53417,-702.2857 15.0893,-15.0893 28.0357,28.0357 -15.0893,15.0893"
         style="display:inline;fill:none;stroke:#ffffff;stroke-width:4;stroke-linecap:butt;stroke-linejoin:miter;stroke-miterlimit:4;stroke-dasharray:none;stroke-opacity:1" />
      <circle
         transform="matrix(0.87208443,0,0,0.87208443,169.91594,-1811.1149)"
         id="path4520"
         style="color:#000000;display:inline;overflow:visible;visibility:visible;fill:none;stroke:#ffffff;stroke-width:4.58671188;stroke-linecap:round;stroke-linejoin:miter;stroke-miterlimit:4;stroke-dasharray:none;stroke-dashoffset:0;stroke-opacity:1;marker:none;enable-background:accumulate"
         cx="1236.048"
         cy="1474.6642"
         r="12.2481" />
      <circle
         transform="matrix(0.87208443,0,0,0.87208443,-222.36349,-1811.1149)"
         id="path4520-3"
         style="color:#000000;display:inline;overflow:visible;visibility:visible;fill:none;stroke:#ffffff;stroke-width:4.58671188;stroke-linecap:round;stroke-linejoin:miter;stroke-miterlimit:4;stroke-dasharray:none;stroke-dashoffset:0;stroke-opacity:1;marker:none;enable-background:accumulate"
         cx="1236.048"
         cy="1474.6642"
         r="12.2481" />
    </g>
    <path
       style="color:#000000;display:inline;overflow:visible;visibility:visible;fill:#7f1084;fill-opacity:1;stroke:#006e36;stroke-width:4;stroke-linecap:round;stroke-linejoin:round;stroke-miterlimit:4;stroke-dashoffset:0;stroke-opacity:1;marker:none;enable-background:accumulate"
       d="m 734.72583,1456.3617 c 0.48075,0.6009 0.96179,1.201 1.44308,1.8003 116.55351,145.1294 225.85496,209.1789 389.49929,209.1789 164.31,0 289.2675,-74.5427 390.3098,-208.9347 l 38.5817,37.3052 c -93.4785,136.7986 -250.6998,226.584 -428.8915,226.584 -178.87509,0 -336.61851,-90.4753 -429.96419,-228.1597 z"
       id="path75467"
       inkscape:connector-curvature="0"
       sodipodi:nodetypes="cssccscc" />
    <path
       inkscape:connector-curvature="0"
       style="color:#000000;display:inline;overflow:visible;visibility:visible;fill:#ba9d35;fill-opacity:1;stroke:#006e36;stroke-width:4;stroke-linecap:round;stroke-linejoin:round;stroke-miterlimit:4;stroke-dashoffset:0;stroke-opacity:1;marker:none;enable-background:accumulate"
       d="m 793.91151,1399.1326 c 67.06744,113.3165 190.53829,189.3026 331.75669,189.3026 140.5382,0 263.4995,-75.256 330.7837,-187.668 l -36.5569,-35.3555 c -57.2193,103.5672 -167.5321,173.7066 -294.2268,173.7066 -127.39075,0 -238.21905,-70.9121 -295.16503,-175.4163 z"
       id="path74969-2"
       sodipodi:nodetypes="csccscc" />
    <path
       style="display:inline;fill:#d2bc5e;fill-opacity:1;stroke:#006e36;stroke-width:4;stroke-linecap:butt;stroke-linejoin:miter;stroke-miterlimit:4;stroke-dasharray:none;stroke-opacity:1"
       d="m 874.87435,1326.925 c 64.90569,96.2313 153.33545,155.4504 250.79365,155.4504 96.7156,0 184.5398,-58.3201 249.3058,-153.2571 0.4272,-0.6262 0.9642,-1.4225 1.5232,-2.2554 l 0.029,-0.038 43.369,38.5868 c -57.2193,103.5672 -167.5321,173.7066 -294.2268,173.7066 -127.39075,0 -238.21905,-70.9121 -295.16503,-175.4163 z"
       id="path75195-5"
       inkscape:connector-curvature="0"
       sodipodi:nodetypes="csscccscc" />
    <path
       style="color:#000000;display:inline;overflow:visible;visibility:visible;fill:#898989;fill-opacity:1;stroke:#898989;stroke-width:4;stroke-linecap:round;stroke-linejoin:round;stroke-miterlimit:4;stroke-dashoffset:0;stroke-opacity:1;marker:none;enable-background:accumulate"
       d="m 515.91258,1668.0567 c 140.08497,183.4711 361.09633,301.8458 609.75562,301.8458 247.988,0 468.4772,-117.7366 608.6194,-300.3616 l -124.5819,-120.5281 c -107.904,150.7661 -284.4966,249.0193 -484.0375,249.0193 -200.22501,0 -377.34412,-98.928 -485.14493,-250.5717 z"
       id="path74927"
       inkscape:connector-curvature="0"
       sodipodi:nodetypes="csccscc" />
    <path
       style="color:#000000;display:inline;overflow:visible;visibility:visible;fill:#ee7800;fill-opacity:1;stroke:#006e36;stroke-width:4;stroke-linecap:round;stroke-linejoin:round;stroke-miterlimit:4;stroke-dashoffset:0;stroke-opacity:1;marker:none;enable-background:accumulate"
       d="m 793.91151,1399.1326 c 67.06744,113.3165 190.53829,189.3026 331.75669,189.3026 140.5382,0 263.4995,-75.256 330.7837,-187.668 l 59.5261,57.639 c -101.0423,134.392 -225.9998,208.9347 -390.3098,208.9347 -163.64433,0 -272.94578,-64.0495 -389.49929,-209.1789 -0.48129,-0.5993 -0.96233,-1.1994 -1.44308,-1.8003 z"
       id="path74969"
       inkscape:connector-curvature="0"
       sodipodi:nodetypes="csccsscc" />
    <path
       style="fill:#e6d583;fill-opacity:1;stroke:#006e36;stroke-width:4;stroke-linecap:butt;stroke-linejoin:miter;stroke-miterlimit:4;stroke-dasharray:none;stroke-opacity:1"
       d="m 926.26198,1340.5696 42.1425,11.292 2.9614,0.9424 c 36.04872,55.6801 91.76962,91.3943 154.30232,91.3943 62.516,0 118.2238,-35.6951 154.2734,-91.3498 l 1.4372,-0.4261 95.1472,-25.5975 -0.029,0.038 c -0.559,0.8329 -1.096,1.6292 -1.5232,2.2554 -64.766,94.937 -152.5902,153.2571 -249.3058,153.2571 -97.4582,0 -185.88796,-59.2191 -250.79365,-155.4504 z"
       id="path75195"
       inkscape:connector-curvature="0"
       sodipodi:nodetypes="cccsccccsscc" />
    <path
       style="color:#000000;display:inline;overflow:visible;visibility:visible;fill:none;stroke:#006e36;stroke-width:4;stroke-linecap:round;stroke-linejoin:round;stroke-miterlimit:4;stroke-dashoffset:0;stroke-opacity:1;marker:none;enable-background:accumulate"
       d="m 1123.6681,1482.3757 c -96.7156,0 -184.25197,-60.7189 -249.01797,-155.6559 -1.6168,-2.3699 -5.09506,-4.7792 -5.09506,-4.7792 l -103.124,-144.6001 -51.0604,-275.72064 -315.5708,-304.84392 c 0,0 -2.7103,-2.78824 -6.2359,-5.54659 C 492.70557,282.60693 782.10307,59.25146 1123.668,59.25146 l 2.0002,-1e-5 c 341.5649,0 630.9624,223.35547 730.104,531.97789 -3.5256,2.75835 -6.2359,5.54659 -6.2359,5.54659 l -315.5708,304.84393 -51.0604,275.72064 -103.124,144.6001 c 0,0 -3.1904,4.8081 -4.8072,7.178 -64.766,94.937 -152.5902,153.2571 -249.3058,153.2571 z"
       id="path73956-1-7-4-9-4-8-8-2-9"
       inkscape:connector-curvature="0"
       sodipodi:nodetypes="ccccccccccccccccc" />
    <path
       style="color:#000000;display:inline;overflow:visible;visibility:visible;fill:#e60012;fill-opacity:1;stroke:#006e36;stroke-width:4;stroke-linecap:round;stroke-linejoin:round;stroke-miterlimit:4;stroke-dashoffset:0;stroke-opacity:1;marker:none;enable-background:accumulate"
       d="m 1377.8574,1742.0819 c 92.9013,-43.5518 172.6959,-110.4199 231.8483,-193.0691 l -55.146,-53.3014 c -51.4016,75.2223 -122.0766,136.2294 -204.9138,175.9101 z"
       id="path4538"
       inkscape:connector-curvature="0"
       sodipodi:nodetypes="ccccc" />
    <path
       style="color:#000000;display:inline;overflow:visible;visibility:visible;fill:#e60012;fill-opacity:1;stroke:#006e36;stroke-width:4;stroke-linecap:round;stroke-linejoin:round;stroke-miterlimit:4;stroke-dashoffset:0;stroke-opacity:1;marker:none;enable-background:accumulate"
       d="m 1349.6459,1671.6215 c -67.8098,32.4823 -143.7693,50.6739 -223.9777,50.6739 -81.1507,0 -157.95203,-18.6215 -226.36417,-51.8245 l -37.57806,65.9425 c 79.53231,39.4445 169.14773,61.6187 263.94223,61.6187 90.1536,0 175.6228,-20.0562 252.1892,-55.9502 z"
       id="path4536"
       inkscape:connector-curvature="0"
       sodipodi:nodetypes="csccscc" />
    <path
       style="color:#000000;display:inline;overflow:visible;visibility:visible;fill:#e60012;fill-opacity:1;stroke:#006e36;stroke-width:4;stroke-linecap:round;stroke-linejoin:round;stroke-miterlimit:4;stroke-dashoffset:0;stroke-opacity:1;marker:none;enable-background:accumulate"
       d="M 899.30403,1670.4709 C 816.91975,1630.4866 746.70135,1569.3565 695.70401,1494.1357 l -55.18074,53.3247 c 56.76361,79.8495 132.7468,145.0828 221.2027,188.953 z"
       id="path74906-7"
       inkscape:connector-curvature="0"
       sodipodi:nodetypes="ccccc" />
    <path
       style="color:#000000;display:inline;overflow:visible;visibility:visible;fill:#c4348d;fill-opacity:1;stroke:#006e36;stroke-width:4;stroke-linecap:round;stroke-linejoin:round;stroke-miterlimit:4;stroke-dashoffset:0;stroke-opacity:1;marker:none;enable-background:accumulate"
       d="m 1956.7896,701.79309 c -13.721,68.85353 -40.934,133.03537 -73.3592,196.11097 l -27.025,46.1314 50.1675,34.0977 113.2633,-256.19994 z"
       id="path75721"
       inkscape:connector-curvature="0"
       sodipodi:nodetypes="ccc" />
    <path
       style="color:#000000;display:inline;overflow:visible;visibility:visible;fill:#898989;fill-opacity:1;stroke:#898989;stroke-width:4;stroke-linecap:round;stroke-linejoin:round;stroke-miterlimit:4;stroke-dashoffset:0;stroke-opacity:1;marker:none;enable-background:accumulate"
       d="m 1794.192,1436.1306 205.7143,-307.1429 -127.0864,-84.7273 -205.7143,307.1429 z"
       id="path73956-1-7-4-9-4-8-8-2-9-7-4"
       inkscape:connector-curvature="0"
       sodipodi:nodetypes="ccccc" />
    <path
       style="color:#000000;display:inline;overflow:visible;visibility:visible;fill:none;stroke:none;stroke-width:4;marker:none;enable-background:accumulate"
       d="m 1933.6327,916.92426 43.3983,24.3383 -32.6895,62.54104 -37.7686,-25.67044 z"
       id="path75721-3"
       inkscape:connector-curvature="0"
       sodipodi:nodetypes="ccccc" />
    <path
       style="color:#000000;display:inline;overflow:visible;visibility:visible;fill:#00aeef;fill-opacity:1;stroke:#006e36;stroke-width:4;stroke-linecap:round;stroke-linejoin:round;stroke-miterlimit:4;stroke-dashoffset:0;stroke-opacity:1;marker:none;enable-background:accumulate"
       d="m 1639.3263,1332.8831 27.7793,18.5202 205.7143,-307.1429 -27.4225,-19.6508 z"
       id="path3191"
       inkscape:connector-curvature="0"
       sodipodi:nodetypes="ccccc" />
    <path
       style="color:#000000;display:inline;overflow:visible;visibility:visible;fill:#be0081;fill-opacity:1;stroke:#006e36;stroke-width:4;stroke-linecap:round;stroke-linejoin:round;stroke-miterlimit:4;stroke-dashoffset:0;stroke-opacity:1;marker:none;enable-background:accumulate"
       d="m 1845.3974,1024.6096 -27.4225,-19.6509 -206.428,309.4041 27.7794,18.5203 z"
       id="path73956-1-7-4-9-4-8-8-2-9-7-4-1"
       inkscape:connector-curvature="0"
       sodipodi:nodetypes="ccccc" />
    <path
       style="color:#000000;display:inline;overflow:visible;visibility:visible;fill:#fff100;fill-opacity:1;stroke:#006e36;stroke-width:4;stroke-linecap:round;stroke-linejoin:round;stroke-miterlimit:4;stroke-dashoffset:0;stroke-opacity:1;marker:none;enable-background:accumulate"
       d="m 430.83865,1004.9587 206.428,309.4041 -182.6451,121.7678 -205.7143,-307.1429 z"
       id="path73956-1-7-4-9-4-8-8-2-9-7-4-1-8"
       inkscape:connector-curvature="0"
       sodipodi:nodetypes="ccccc" />
    <path
       style="color:#000000;display:inline;overflow:visible;visibility:visible;fill:#584c9d;fill-opacity:1;stroke:#006e36;stroke-width:4;stroke-linecap:round;stroke-linejoin:round;stroke-miterlimit:4;stroke-dashoffset:0;stroke-opacity:1;marker:none;enable-background:accumulate"
       d="M 1951.9897,457.10464 2112.0802,298.55303 C 2046.3329,156.12991 2007.6527,106.19204 1936.1563,11.57695 c -75.5477,34.019 -136.5045,59.35854 -214.9914,66.29112 l 0.01,-0.18803 c 117.3937,101.06152 199.8008,231.84168 230.4028,377.96847 z"
       id="path73956-1-7-4-9-4-8-8-2-9-24-5-5"
       inkscape:connector-curvature="0" />
    <path
       style="color:#000000;display:inline;overflow:visible;visibility:visible;fill:#1eb8ee;fill-opacity:1;stroke:#006e36;stroke-width:4;stroke-linecap:round;stroke-linejoin:round;stroke-miterlimit:4;stroke-dashoffset:0;stroke-opacity:1;marker:none;enable-background:accumulate"
       d="m 1720.3433,77.93992 c -104.1366,9.01362 -239.2336,-14.33502 -479.966,-92.66046 l 16.3445,-110.79952 c 180.2978,24.16589 341.5471,97.39646 464.4494,203.2001 z"
       id="path73956-1-7-4-9-4-8-8-2-9-24-5-6"
       inkscape:connector-curvature="0"
       sodipodi:nodetypes="ccccc" />
    <path
       style="color:#000000;display:inline;overflow:visible;visibility:visible;fill:none;stroke:#006e36;stroke-width:4;stroke-linecap:round;stroke-linejoin:round;stroke-miterlimit:4;stroke-dasharray:none;stroke-dashoffset:0;stroke-opacity:1;marker:none;enable-background:accumulate"
       d="m 297.8718,454.61647 c 59.40564,-298.82256 335.79275,-527.45627 685.35058,-578.54073 46.29782,-6.76597 93.89022,-10.29048 142.44582,-10.29048 44.5821,0 88.3521,2.97126 131.0536,8.69468 352.5146,47.24867 632.2122,282.05826 694.8522,581.16857"
       id="path75699"
       inkscape:connector-curvature="0"
       sodipodi:nodetypes="cscsc" />
    <path
       style="color:#000000;display:inline;overflow:visible;visibility:visible;fill:none;stroke:#006e36;stroke-width:4;stroke-linecap:round;stroke-linejoin:round;stroke-miterlimit:4;stroke-dashoffset:0;stroke-opacity:1;marker:none;enable-background:accumulate"
       d="M 1003.9428,-14.72052 C 580.85548,122.9365 489.24825,90.68642 313.35645,11.4827 c -71.4964,94.61509 -110.1766,144.55296 -175.92391,286.97608 89.87293,89.15095 175.56144,173.84931 265.63302,262.79939 94.42609,-261.5035 326.27094,-452.67015 608.89034,-493.92679 36.4674,-5.32349 73.7678,-8.07989 111.7121,-8.07989 l 2.0002,-10e-6 c 35.8613,0 71.1475,2.46208 105.6989,7.22642 284.1469,39.18144 518.5933,234.07068 614.45,495.77866 L 2112.0802,298.55303 C 2046.3329,156.12991 2007.6527,106.19204 1936.1563,11.57695 1760.2645,90.78067 1663.4646,122.93648 1240.3773,-14.72054"
       id="path73956-1-7-4-9-4-8-8-2-9-24-5"
       inkscape:connector-curvature="0"
       sodipodi:nodetypes="cscccccsccsc" />
    <path
       inkscape:connector-curvature="0"
       style="color:#000000;display:inline;overflow:visible;visibility:visible;fill:#584c9d;fill-opacity:1;stroke:#006e36;stroke-width:4;stroke-linecap:round;stroke-linejoin:round;stroke-miterlimit:4;stroke-dashoffset:0;stroke-opacity:1;marker:none;enable-background:accumulate"
       d="M 297.45757,457.10466 137.36707,298.55305 c 65.7473,-142.42312 104.4275,-192.36099 175.9239,-286.97608 75.5477,34.019 136.5045,59.35854 214.9914,66.29112 l -0.01,-0.18803 c -117.3937,101.06152 -199.8008,231.84168 -230.4028,377.96847 z"
       id="path73956-1-7-4-9-4-8-8-2-9-24-5-5-23" />
    <path
       inkscape:connector-curvature="0"
       style="color:#000000;display:inline;overflow:visible;visibility:visible;fill:#e6c4dc;fill-opacity:1;stroke:#006e36;stroke-width:4;stroke-linecap:round;stroke-linejoin:round;stroke-miterlimit:4;stroke-dashoffset:0;stroke-opacity:1;marker:none;enable-background:accumulate"
       d="m 1971.5902,437.69259 140.918,-139.56344 -37.6011,-75.84344 -156.6079,84.91622 z"
       id="path73956-1-7-4-9-4-8-8-2-9-24-5-5-6"
       sodipodi:nodetypes="ccccc" />
    <path
       style="color:#000000;display:inline;overflow:visible;visibility:visible;fill:#7d001a;fill-opacity:1;stroke:#006e36;stroke-width:4;stroke-linecap:round;stroke-linejoin:miter;stroke-miterlimit:4;stroke-dashoffset:0;stroke-opacity:1;marker:none;enable-background:accumulate"
       d="M 838.89838,113.87846 C 628.09811,198.25712 463.49758,373.52981 393.56397,591.22935 L 409.27948,574.48996 830.78647,122.43198 Z M 1855.7722,591.22934 C 1785.8959,373.70827 1621.5079,198.54452 1410.9562,114.08616 l 7.0638,7.58624 424.5837,455.35762 z"
       id="path73956-1-7-4-9-4-8-8-2-9-4"
       inkscape:connector-curvature="0"
       sodipodi:nodetypes="cccccccccc" />
    <path
       inkscape:connector-curvature="0"
       style="color:#000000;display:inline;overflow:visible;visibility:visible;fill:#0086d1;fill-opacity:1;stroke:#006e36;stroke-width:4;stroke-linecap:round;stroke-linejoin:round;stroke-miterlimit:4;stroke-dashoffset:0;stroke-opacity:1;marker:none;enable-background:accumulate"
       d="m 1721.1749,77.68005 c 117.3937,101.06152 199.8008,231.84168 230.4028,377.96847 l 0.412,1.45613 v -10e-6 L 1845.8171,562.25656 C 1749.9604,300.54858 1515.514,105.65934 1231.3671,66.4779 l 9.0102,-81.19844 c 237.1048,77.14518 371.7339,100.95793 475.237,93.04581 z"
       id="path73956-1-7-4-9-4-8-8-2-9-24-5-5-2"
       sodipodi:nodetypes="ccccccccc" />
    <path
       style="color:#000000;display:inline;overflow:visible;visibility:visible;fill:#0086d1;fill-opacity:1;stroke:#006e36;stroke-width:4;stroke-linecap:round;stroke-linejoin:round;stroke-miterlimit:4;stroke-dashoffset:0;stroke-opacity:1;marker:none;enable-background:accumulate"
       d="m 663.01583,73.30429 c -49.23492,6.73243 -90.62092,7.9688 -129.18286,5.021 l -5.5606,-0.64522 c -117.3937,101.06152 -199.8008,231.84168 -230.4028,377.96847 l -0.412,1.45613 v -10e-6 l 106.1726,105.15192 C 463.27364,399.41795 573.1846,262.99167 716.16617,173.71417 Z"
       id="path3201"
       inkscape:connector-curvature="0"
       sodipodi:nodetypes="ccccccccc" />
    <path
       style="color:#000000;display:inline;overflow:visible;visibility:visible;fill:#a054a1;fill-opacity:1;stroke:#006e36;stroke-width:4;stroke-linecap:round;stroke-linejoin:round;stroke-miterlimit:4;stroke-dashoffset:0;stroke-opacity:1;marker:none;enable-background:accumulate"
       d="m 994.37447,-48.14003 -17.96152,-120.80698 c -208.20771,27.90675 -384.31326,110.85254 -526.24071,233.03448 24.00337,6.15563 50.58972,10.58927 78.93173,13.85247 39.72467,3.4384 82.74484,2.34715 133.91186,-4.63565 l 33.51232,63.31037 234.39657,-78.27703 -11.32298,-46.42646 -9.82139,-35.93849 z"
       id="path3205"
       inkscape:connector-curvature="0" />
    <path
       style="color:#000000;display:inline;overflow:visible;visibility:visible;fill:#185fa5;fill-opacity:1;stroke:#006e36;stroke-width:4;stroke-linecap:round;stroke-linejoin:round;stroke-miterlimit:4;stroke-dashoffset:0;stroke-opacity:1;marker:none;enable-background:accumulate"
       d="m 696.52815,136.61466 19.63802,37.09951 c 66.83285,-41.73034 140.89109,-73.15942 220.41852,-92.16955 l -5.65997,-23.20699 z"
       id="path3195"
       inkscape:connector-curvature="0"
       sodipodi:nodetypes="ccccc" />
    <path
       style="color:#000000;display:inline;overflow:visible;visibility:visible;fill:#0086d1;fill-opacity:1;stroke:#006e36;stroke-width:4;stroke-linecap:round;stroke-linejoin:round;stroke-miterlimit:4;stroke-dashoffset:0;stroke-opacity:1;marker:none;enable-background:accumulate"
       d="m 936.58469,81.54462 c 23.77519,-5.68319 48.03918,-10.25644 72.74511,-13.66317 l -9.77786,-78.48451 c -28.05032,9.1265401 -54.87498,14.8779801 -79.9502,22.51423 z"
       id="path73956-1-7-4-9-4-8-8-2-9-24-5-5-2-2"
       inkscape:connector-curvature="0"
       sodipodi:nodetypes="ccccc" />
    <path
       style="color:#000000;display:inline;overflow:visible;visibility:visible;fill:#006e36;fill-opacity:1;stroke:#006e36;stroke-width:4;stroke-linecap:round;stroke-linejoin:round;stroke-miterlimit:4;stroke-dashoffset:0;stroke-opacity:1;marker:none;enable-background:accumulate"
       d="m 1011.9559,67.33138 c 36.4674,-5.32349 73.7678,-8.07989 111.7121,-8.07989 l 2.0002,-10e-6 c 35.8613,0 71.1475,2.46208 105.6989,7.22642 l 25.3547,-191.99796 c -42.7015,-5.72342 -86.4715,-8.69468 -131.0536,-8.69468 -48.5556,0 -96.148,3.52451 -142.44582,10.29048 z"
       id="path73956-1-7-4-9-4-8-8-2-9-24-5-1"
       inkscape:connector-curvature="0"
       sodipodi:nodetypes="cccccccc" />
    <path
       style="color:#000000;display:inline;overflow:visible;visibility:visible;fill:#cfdb00;fill-opacity:1;stroke:#006e36;stroke-width:4;stroke-linecap:round;stroke-linejoin:round;stroke-miterlimit:4;stroke-dashoffset:0;stroke-opacity:1;marker:none;enable-background:accumulate"
       d="m 1504.475,1060.8655 29.4905,-159.24564 149.2963,-144.22142 91.392,-88.89248 c -12.1923,45.59888 -35.5517,111.98767 -67.1896,163.9044 -39.4907,60.3683 -125.6615,200.45264 -223.9274,343.95384 z"
       id="path73956-1-7-4-9-4-8-8-2-9-2"
       inkscape:connector-curvature="0"
       sodipodi:nodetypes="ccccccc" />
    <path
       style="color:#000000;display:inline;overflow:visible;visibility:visible;fill:#fcc800;fill-opacity:1;stroke:#006e36;stroke-width:4;stroke-linecap:round;stroke-linejoin:round;stroke-miterlimit:4;stroke-dashoffset:0;stroke-opacity:1;marker:none;enable-background:accumulate"
       d="m 1883.4304,897.90406 -27.025,46.1314 -38.4305,60.92324 -206.428,309.4041 -99.3803,140.2026 -19.5932,-18.8217 -114.6966,-110.9426 82.9702,-116.5308 22.6898,-31.9061 c 98.2659,-143.5012 223.9274,-343.95384 223.9274,-343.95384 z"
       id="path73956-1-7-4-9-4-8-8-2-9-7"
       inkscape:connector-curvature="0"
       sodipodi:nodetypes="ccccccccccc" />
    <path
       style="color:#000000;display:inline;overflow:visible;visibility:visible;fill:#00acd1;fill-opacity:1;stroke:#006e36;stroke-width:4;stroke-linecap:round;stroke-linejoin:round;stroke-miterlimit:4;stroke-dashoffset:0;stroke-opacity:1;marker:none;enable-background:accumulate"
       d="m 1911.3122,537.2879 45.8884,-44.18904 c 2.5369,17.19501 4.5197,34.41195 6.0291,51.81587 z"
       id="path3762"
       inkscape:connector-curvature="0"
       sodipodi:nodetypes="cccc" />
    <path
       style="color:#000000;display:inline;overflow:visible;visibility:visible;fill:#de498d;fill-opacity:1;stroke:#006e36;stroke-width:4;stroke-linecap:round;stroke-linejoin:round;stroke-miterlimit:4;stroke-dashoffset:0;stroke-opacity:1;marker:none;enable-background:accumulate"
       d="m 1963.2297,544.91473 c 1.0952,12.62817 1.9412,25.35478 2.5687,38.24288 l -76.0362,-25.11787 21.55,-20.75184 z"
       id="path3760"
       inkscape:connector-curvature="0"
       sodipodi:nodetypes="ccccc" />
    <path
       style="color:#000000;display:inline;overflow:visible;visibility:visible;fill:#74a92d;fill-opacity:1;stroke:#006e36;stroke-width:4;stroke-linecap:round;stroke-linejoin:round;stroke-miterlimit:4;stroke-dashoffset:0;stroke-opacity:1;marker:none;enable-background:accumulate"
       d="m 1965.7984,583.15761 c 5.6697,116.44261 -32.0809,216.92479 -82.368,314.74645 0,0 -0.1,-0.1254 -175.9662,-65.4937 31.6379,-51.91669 54.9973,-118.30548 67.1896,-163.90436 l 20.2703,-18.97415 54.6122,-52.75587 40.2259,-38.73624 z"
       id="path73956-1-7-4-9-4-8-8-2-9-7-3"
       inkscape:connector-curvature="0"
       sodipodi:nodetypes="cccccccc" />
    <path
       style="color:#000000;display:inline;overflow:visible;visibility:visible;fill:#cfdb00;fill-opacity:1;stroke:#006e36;stroke-width:4;stroke-linecap:round;stroke-linejoin:round;stroke-miterlimit:4;stroke-dashoffset:0;stroke-opacity:1;marker:none;enable-background:accumulate"
       d="m 744.33855,1060.8655 -29.4905,-159.24564 -149.2963,-144.22142 -91.392,-88.89248 c 12.1923,45.59888 35.5517,111.98767 67.1896,163.9044 39.4907,60.3683 125.6615,200.45264 223.9274,343.95384 z"
       id="path73956-1-7-4-9-4-8-8-2-9-2-3"
       inkscape:connector-curvature="0"
       sodipodi:nodetypes="ccccccc" />
    <path
       style="color:#000000;display:inline;overflow:visible;visibility:visible;fill:#fcc800;fill-opacity:1;stroke:#006e36;stroke-width:4;stroke-linecap:round;stroke-linejoin:round;stroke-miterlimit:4;stroke-dashoffset:0;stroke-opacity:1;marker:none;enable-background:accumulate"
       d="m 365.38315,897.90406 27.025,46.1314 38.4305,60.92324 206.428,309.4041 99.3803,140.2026 19.5932,-18.8217 118.04683,-109.7379 -86.32043,-117.7355 -22.6898,-31.9061 C 667.01085,1032.863 541.34935,832.41036 541.34935,832.41036 Z"
       id="path73956-1-7-4-9-4-8-8-2-9-7-41"
       inkscape:connector-curvature="0"
       sodipodi:nodetypes="ccccccccccc" />
    <path
       style="color:#000000;display:inline;overflow:visible;visibility:visible;fill:#74a92d;fill-opacity:1;stroke:#006e36;stroke-width:4;stroke-linecap:round;stroke-linejoin:round;stroke-miterlimit:4;stroke-dashoffset:0;stroke-opacity:1;marker:none;enable-background:accumulate"
       d="M 541.34935,832.41036 C 509.71145,780.49367 486.35205,714.10488 474.15975,668.506 l -20.2703,-18.97415 -54.6122,-52.75587 -107.6643,-103.67712 c -4.3777,29.67159 -7.1054,59.4085 -8.5978,90.05875 -5.6697,116.44261 32.0809,216.92479 82.368,314.74645 0,0 0.1,-0.1254 175.9662,-65.4937 z"
       id="path73956-1-7-4-9-4-8-8-2-9-7-3-7"
       inkscape:connector-curvature="0"
       sodipodi:nodetypes="cccccscc" />
    <path
       inkscape:connector-curvature="0"
       style="color:#000000;display:inline;overflow:visible;visibility:visible;fill:#ffffff;fill-opacity:1;stroke:none;stroke-width:4;marker:none;enable-background:accumulate"
       d="m 1499.0457,60.09286 c 90.1584,19.31183 157.7858,24.44477 215.8097,20.36637 l 5.7391,-0.60058 c 26.8494,23.11401 51.6901,47.73793 74.678,73.78912 l -108.6603,96.16541 C 1637.234,187.50231 1545.8586,125.55753 1474.5492,96.13053 Z"
       id="path73956-1-7-4-9-4-8-8-2-9-24-5-5-2-1"
       sodipodi:nodetypes="ccccccc" />
    <g
       style="display:inline;fill:#d4227d;fill-opacity:1"
       id="g3156"
       transform="matrix(0.96122646,0,0,0.96122646,-482.74218,-48.62661)">
      <path
         id="path3158"
         d="M 719.7357,1182.2497 C 535.57598,940.75683 532.82778,755.59495 527.17446,512.67977 l 228.74696,38.13519 c -13.52887,180.42638 3.96444,310.87951 132.74647,516.53254 z"
         style="fill:#d4227d;fill-opacity:1;fill-rule:nonzero;stroke:#006e36;stroke-width:3.9999938px;stroke-linecap:butt;stroke-linejoin:miter;stroke-dasharray:none;stroke-opacity:1"
         inkscape:connector-curvature="0"
         sodipodi:nodetypes="ccccc" />
    </g>
    <path
       sodipodi:nodetypes="cccccc"
       inkscape:connector-curvature="0"
       id="path73956-1-7-4-9-4-8-8-2-9-7-3-74-2"
       d="m 377.39861,576.05434 -85.75222,-82.57655 c 1.75561,-14.83024 3.98374,-24.8083 6.57325,-35.67961 v 0 l 99.18918,98.23561 z"
       style="color:#000000;display:inline;overflow:visible;visibility:visible;fill:#f27085;fill-opacity:1;stroke:#006e36;stroke-width:3.99216342;stroke-linecap:round;stroke-linejoin:round;stroke-miterlimit:4;stroke-dasharray:none;stroke-dashoffset:0;stroke-opacity:1;marker:none;enable-background:accumulate" />
    <path
       style="color:#000000;display:inline;overflow:visible;visibility:visible;fill:#9aca3b;fill-opacity:1;stroke:#006e36;stroke-width:4;stroke-linecap:round;stroke-linejoin:round;stroke-miterlimit:4;stroke-dashoffset:0;stroke-opacity:1;marker:none;enable-background:accumulate"
       d="M 976.5089,-168.94701 C 768.30118,-141.04027 592.09968,-58.09447 450.17224,64.08747 395.03304,49.07108 322.3077,16.86213 269.836,-10.46307 l 189.43221,-277.63488 c 15.95707,-19.07958 36.82404,-34.03485 78.13963,-31.81328 l 421.22322,20.95757 z"
       id="path73956-1-7-4-9-4-8-8-2-9-24-5-6-2-7"
       inkscape:connector-curvature="0"
       sodipodi:nodetypes="ccccccc" />
    <path
       style="fill:#f58220;fill-opacity:1;stroke:#006e36;stroke-width:1px;stroke-linecap:butt;stroke-linejoin:miter;stroke-opacity:1"
       d="m 793.18585,1215.6546 81.40579,110.0697 -45.14357,40.3172 -84.59742,-114.1793 z"
       id="path3975"
       inkscape:connector-curvature="0"
       sodipodi:nodetypes="ccccc" />
    <path
       style="display:inline;fill:#f58220;fill-opacity:1;stroke:#006e36;stroke-width:1px;stroke-linecap:butt;stroke-linejoin:miter;stroke-opacity:1"
       d="m 1455.5757,1215.6546 -78.7191,110.0697 45.1436,40.3172 81.9107,-114.1793 z"
       id="path3975-0"
       inkscape:connector-curvature="0"
       sodipodi:nodetypes="ccccc" />
    <path
       style="color:#000000;display:inline;overflow:visible;visibility:visible;fill:#aade87;fill-opacity:1;stroke:#006e36;stroke-width:4;stroke-linecap:round;stroke-linejoin:round;stroke-miterlimit:4;stroke-dashoffset:0;stroke-opacity:1;marker:none;enable-background:accumulate"
       d="m 919.60174,11.91117 c 25.26635,-7.6912899 51.64113,-13.3034999 79.9502,-22.51423 l -5.17747,-37.53697 -84.28992,24.20558 z"
       id="path3411"
       inkscape:connector-curvature="0"
       sodipodi:nodetypes="ccccc" />
    <path
       style="color:#000000;display:inline;overflow:visible;visibility:visible;fill:#00aeef;fill-opacity:1;stroke:#006e36;stroke-width:4;stroke-linecap:round;stroke-linejoin:round;stroke-miterlimit:4;stroke-dashoffset:0;stroke-opacity:1;marker:none;enable-background:accumulate"
       d="m 1641.7456,935.16396 28.3221,16.8918 25.7143,-39.1429 -27.9653,-18.0224 z"
       id="path3191-8"
       inkscape:connector-curvature="0"
       sodipodi:nodetypes="ccccc" />
    <path
       style="color:#000000;display:inline;overflow:visible;visibility:visible;fill:#e6305e;fill-opacity:1;stroke:#e6305e;stroke-width:4;stroke-linecap:round;stroke-linejoin:round;stroke-miterlimit:4;stroke-dashoffset:0;stroke-opacity:1;marker:none;enable-background:accumulate"
       d="m 1353.373,1674.3082 c -67.8098,32.4823 -147.4964,51.6334 -227.7048,51.6334 -81.1506,0 -161.48012,-19.7071 -229.89226,-52.9101 l -34.04996,59.0942 c 79.53232,39.4445 169.14772,61.6187 263.94222,61.6187 90.1536,0 175.6228,-20.0562 252.1892,-55.9502 z"
       id="path4536-6"
       inkscape:connector-curvature="0"
       sodipodi:nodetypes="csccscc" />
  </g>
</svg>
