<?xml version="1.0" encoding="UTF-8" standalone="no"?>
<svg xmlns:dc="http://purl.org/dc/elements/1.1/" xmlns:cc="http://creativecommons.org/ns#" xmlns:rdf="http://www.w3.org/1999/02/22-rdf-syntax-ns#" xmlns:svg="http://www.w3.org/2000/svg" xmlns="http://www.w3.org/2000/svg" xmlns:sodipodi="http://sodipodi.sourceforge.net/DTD/sodipodi-0.dtd" xmlns:inkscape="http://www.inkscape.org/namespaces/inkscape" id="svg2" version="1.1" inkscape:version="0.48.1 r9760" width="100%" height="100%" sodipodi:docname="out.svg">
  <title id="title3905">テスト会場図</title>
  <metadata id="metadata78">
    <rdf:RDF>
      <cc:Work rdf:about="">
        <dc:format>image/svg+xml</dc:format>
        <dc:type rdf:resource="http://purl.org/dc/dcmitype/StillImage"/>
        <dc:title>テスト会場図</dc:title>
      </cc:Work>
    </rdf:RDF>
  </metadata>
  <defs id="defs76"/>
  <sodipodi:namedview pagecolor="#ffffff" bordercolor="#666666" borderopacity="1" objecttolerance="10" gridtolerance="10" guidetolerance="10" inkscape:pageopacity="0" inkscape:pageshadow="2" inkscape:window-width="903" inkscape:window-height="696" id="namedview74" showgrid="false" inkscape:zoom="1" inkscape:cx="197.27798" inkscape:cy="881.13189" inkscape:window-x="0" inkscape:window-y="0" inkscape:window-maximized="0" inkscape:current-layer="g3085"/>
  <g id="g3859" transform="translate(14.201001,-8.5206004)">
    <g id="g3085">
      <rect x="10" y="10" width="450" height="290" id="rect4"/>
      <text id="text3907" y="82.433838" x="205.57181">ステージ</text>
      <rect x="25" y="25" width="420" height="110" id="rect6"/>
      <rect x="-15" y="165" width="25" height="50" id="rect8"/>
      <rect x="175" y="300" width="120" height="35" id="rect10"/>
      <rect x="460" y="165" width="25" height="50" id="rect12"/>
      <g id="g3835">
        <path inkscape:connector-curvature="0" id="path68" d="m 25,150 420,0 -110,130 -200,0 z"/>
        <g id="g3028">
          <rect x="60" y="160" width="30" height="30" id="A1"/>
          <rect x="100" y="160" width="30" height="30" id="A2"/>
          <rect x="140" y="160" width="30" height="30" id="A3"/>
          <rect x="180" y="160" width="30" height="30" id="A4"/>
          <rect x="220" y="160" width="30" height="30" id="A5"/>
          <rect x="260" y="160" width="30" height="30" id="A6"/>
          <rect x="300" y="160" width="30" height="30" id="A7"/>
          <rect x="340" y="160" width="30" height="30" id="A8"/>
          <rect x="380" y="160" width="30" height="30" id="A9"/>
          <text x="49" y="177" id="text3957">A列</text>
        </g>
        <g id="g3041">
          <rect x="100" y="200" width="30" height="30" id="B1"/>
          <rect x="140" y="200" width="30" height="30" id="B2"/>
          <rect x="180" y="200" width="30" height="30" id="B3"/>
          <rect x="220" y="200" width="30" height="30" id="B4"/>
          <rect x="260" y="200" width="30" height="30" id="B5"/>
          <rect x="300" y="200" width="30" height="30" id="B6"/>
          <rect x="340" y="200" width="30" height="30" id="B7"/>
          <text x="90" y="217.36218" id="text3958">B列</text>
        </g>
        <g id="g3051">
          <rect x="140" y="240" width="30" height="30" id="C1"/>
          <rect x="180" y="240" width="30" height="30" id="C2"/>
          <rect x="220" y="240" width="30" height="30" id="C3"/>
          <rect x="260" y="240" width="30" height="30" id="C4"/>
          <rect x="300" y="240" width="30" height="30" id="C5"/>
          <text x="127" y="258.36218" id="text3985">C列</text>
        </g>
      </g>
      <g id="g3078">
        <rect id="D1" height="30" width="30" y="200" x="410"/>
        <rect id="D2" height="30" width="30" y="240" x="370"/>
        <rect id="D3" height="30" width="30" y="240" x="410"/>
        <path inkscape:connector-curvature="0" id="path72" d="m 445,165 0,115 -95,0 z"/>
        <text id="text4069" y="239.36218" x="385">車椅子席</text>
      </g>
      <g id="g3071">
        <rect id="E1" height="30" width="30" y="200" x="30"/>
        <rect id="E2" height="30" width="30" y="240" x="30"/>
        <rect id="E3" height="30" width="30" y="240" x="70"/>
        <path inkscape:connector-curvature="0" id="path70" d="m 25,165 95,115 -95,0 z"/>
        <text x="38" y="240.36218" id="text3059">車椅子席</text>
      </g>
    </g>
  </g>
</svg>
