<?xml version="1.0" encoding="UTF-8" standalone="no"?>
<!-- Created with Inkscape (http://www.inkscape.org/) -->

<svg
   xmlns:ts="http://xmlns.ticketstar.jp/svg-extension"
   xmlns:dc="http://purl.org/dc/elements/1.1/"
   xmlns:cc="http://creativecommons.org/ns#"
   xmlns:rdf="http://www.w3.org/1999/02/22-rdf-syntax-ns#"
   xmlns:svg="http://www.w3.org/2000/svg"
   xmlns="http://www.w3.org/2000/svg"
   xmlns:sodipodi="http://sodipodi.sourceforge.net/DTD/sodipodi-0.dtd"
   xmlns:inkscape="http://www.inkscape.org/namespaces/inkscape"
   width="627.16534"
   height="230.31496"
   version="1.2"
   id="svg2"
   inkscape:version="0.48.1 r9760"
   sodipodi:docname="sample-rt.svg">
  <metadata
     id="metadata58">
    <rdf:RDF>
      <cc:Work
         rdf:about="">
        <dc:format>image/svg+xml</dc:format>
        <dc:type
           rdf:resource="http://purl.org/dc/dcmitype/StillImage" />
        <dc:title />
      </cc:Work>
    </rdf:RDF>
  </metadata>
  <defs
     id="defs56">
    <inkscape:perspective
       sodipodi:type="inkscape:persp3d"
       inkscape:vp_x="0 : 115.22834 : 1"
       inkscape:vp_y="0 : 1000 : 0"
       inkscape:vp_z="630.56689 : 115.22834 : 1"
       inkscape:persp3d-origin="315.28345 : 76.818893 : 1"
       id="perspective3022" />
    <clipPath
       id="clipPath16">
      <path
         id="path18"
         d="M 7,7 571,7 571,835 7,835 7,7 z"
         inkscape:connector-curvature="0" />
    </clipPath>
    <clipPath
       id="clipPath3018"
       clipPathUnits="userSpaceOnUse">
      <path
         inkscape:connector-curvature="0"
         id="path3020"
         d="M 0,300 300,300 300,0 0,0 0,300 z" />
    </clipPath>
    <clipPath
       id="clipPath16-9">
      <path
         id="path18-7"
         d="M 7,7 571,7 571,835 7,835 7,7 z"
         inkscape:connector-curvature="0" />
    </clipPath>
  </defs>
  <sodipodi:namedview
     pagecolor="#ffffff"
     bordercolor="#666666"
     borderopacity="1"
     objecttolerance="10"
     gridtolerance="10"
     guidetolerance="10"
     inkscape:pageopacity="0"
     inkscape:pageshadow="2"
     inkscape:window-width="974"
     inkscape:window-height="848"
     id="namedview54"
     showgrid="false"
     inkscape:zoom="1"
     inkscape:cx="297.65179"
     inkscape:cy="137.88068"
     inkscape:window-x="129"
     inkscape:window-y="139"
     inkscape:window-maximized="0"
     inkscape:current-layer="svg2"
     units="mm"
     showguides="true"
     inkscape:guide-bbox="true"
     inkscape:document-units="mm">
    <sodipodi:guide
       orientation="1,0"
       position="63.5,175"
       id="guide3037" />
    <sodipodi:guide
       orientation="0,1"
       position="95.5,23"
       id="guide3041" />
    <sodipodi:guide
       orientation="1,0"
       position="526,159"
       id="guide3149" />
  </sodipodi:namedview>
  <ts:qrcode
     content="日本語日本語日本語日本語日本語日本語日本語日本語日本語日本語日本語日本語日本語日本語日本語日本語日本語日本語日本語日本語日本語日本語日本語日本語日本語日本語日本語"
     x="104mm"
     y="30mm"
     width="24mm"
     height="24mm"
     fill="#000"
     stroke="none" />
  <flowRoot
     transform="translate(-13,27.307124)"
     style="font-size:10px;font-style:normal;font-variant:normal;font-weight:900;font-stretch:normal;line-height:125%;letter-spacing:0px;word-spacing:0px;writing-mode:lr-tb;text-anchor:middle;fill:#000000;fill-opacity:1;stroke:none;font-family:MS PGothic"
     id="flowRoot3008">
    <flowRegion
       id="flowRegion3010">
      <rect
         style="text-anchor:middle;fill:none;stroke:none;font-family:MS PGothic"
         y="0.5078308"
         x="95.5"
         height="34.499981"
         width="375"
         id="rect3012" />
    </flowRegion>
    <flowDiv
       style="font-size:18px;line-height:100%;text-anchor:middle"
       id="flowDiv3054">{{イベント名}}</flowDiv>
  </flowRoot>
  <flowRoot
     id="flowRoot3020"
     style="font-size:10px;font-style:normal;font-variant:normal;font-weight:900;font-stretch:normal;line-height:125%;letter-spacing:0px;word-spacing:0px;writing-mode:lr-tb;text-anchor:middle;fill:#000000;fill-opacity:1;stroke:none;font-family:MS PGothic"
     transform="translate(19,69.858254)">
    <flowRegion
       id="flowRegion3022">
      <rect
         id="rect3024"
         width="375"
         height="19"
         x="63.5"
         y="-10.54332"
         style="text-anchor:middle;fill:none;stroke:none;font-family:MS PGothic" />
    </flowRegion>
    <flowDiv
       style="line-height:100%"
       id="flowDiv3060">{{パフォーマンス名}}<flowPara
   style="line-height:100%"
   id="flowPara3026" />
</flowDiv>
  </flowRoot>
  <flowRoot
     transform="translate(19,5.858254)"
     style="font-size:10px;font-style:normal;font-variant:normal;font-stretch:normal;text-align:start;line-height:125%;letter-spacing:0px;word-spacing:0px;writing-mode:lr-tb;text-anchor:start;fill:#000000;fill-opacity:1;stroke:none;font-family:MS PGothic"
     id="flowRoot3056">
    <flowRegion
       id="flowRegion3058">
      <rect
         style="font-style:normal;font-variant:normal;font-stretch:normal;text-align:start;text-anchor:start;fill:none;stroke:none;font-family:MS PGothic"
         y="77.95668"
         x="78"
         height="36.5"
         width="155"
         id="rect3060" />
    </flowRegion>
    <flowDiv style="line-height:100%">
      <flowPara>{{開催日}}</flowPara>
      <flowPara>開場 {{開場時刻}} 開演 {{開始時刻}}</flowPara>
      <flowPara>公演コード {{公演コード}}</flowPara>
    </flowDiv>
  </flowRoot>
  <flowRoot
     id="flowRoot3103"
     style="font-size:10px;font-style:normal;font-variant:normal;font-stretch:normal;text-align:start;line-height:125%;letter-spacing:0px;word-spacing:0px;writing-mode:lr-tb;text-anchor:start;fill:#000000;fill-opacity:1;stroke:none;font-family:MS PGothic"
     transform="translate(245,7.103994)">
    <flowRegion
       id="flowRegion3105">
      <rect
         id="rect3107"
         width="191"
         height="35.254261"
         x="78"
         y="77.95668"
         style="font-style:normal;font-variant:normal;font-stretch:normal;text-align:start;text-anchor:start;fill:none;stroke:none;font-family:MS PGothic" />
    </flowRegion>
    <flowDiv style="line-height:100%">
      <flowPara>{{券種名}} {{席番}}</flowPara>
      <flowPara>￥{{チケット価格}} (税込)</flowPara>
    </flowDiv>
  </flowRoot>
  <flowRoot
     id="flowRoot3175"
     style="font-size:8px;font-style:normal;font-variant:normal;font-stretch:normal;text-align:start;line-height:125%;letter-spacing:0px;word-spacing:0px;writing-mode:lr-tb;text-anchor:start;fill:#000000;fill-opacity:1;stroke:none;font-family:MS PGothic"
     transform="translate(19,43.358254)">
    <flowRegion
       id="flowRegion3177">
      <rect
         id="rect3179"
         width="437"
         height="61.5"
         x="78"
         y="77.95668"
         style="font-style:normal;font-variant:normal;font-stretch:normal;text-align:start;text-anchor:start;fill:none;stroke:none;font-family:MS PGothic" />
    </flowRegion>
    <flowDiv style="line-height:100%">
      <flowPara>主催: {{aux.主催}}</flowPara>
      <flowPara>お問合せ: {{aux.問合先}} {{aux.問合先電話番号}}</flowPara>
      <flowPara>営利目的の転売禁止</flowPara>
      <flowPara>4歳以下入場不可</flowPara>
    </flowDiv>
  </flowRoot>
  <flowRoot
     id="flowRoot3250"
     style="font-size:10px;font-style:normal;font-variant:normal;font-stretch:normal;text-align:start;line-height:125%;letter-spacing:0px;word-spacing:0px;writing-mode:lr-tb;text-anchor:start;fill:#000000;fill-opacity:1;stroke:none;font-family:MS PGothic"
     transform="translate(19,98.604014)">
    <flowRegion
       id="flowRegion3252">
      <rect
         id="rect3254"
         width="157"
         height="14.5"
         x="78"
         y="77.95668"
         style="font-style:normal;font-variant:normal;font-stretch:normal;text-align:start;text-anchor:start;fill:none;stroke:none;font-family:MS PGothic" />
    </flowRegion>
    <flowDiv id="flowDiv51">
      <flowPara id="flowPara3293">{{発券番号}}</flowPara>
    </flowDiv>
  </flowRoot>
  <g
     id="g10"
     transform="matrix(0.2547878,0,0,-0.2547878,493.70259,179.79315)">
    <path
       style="fill:#ffffff;fill-opacity:1;fill-rule:nonzero;stroke:#231f20;stroke-width:2.70000005;stroke-linecap:butt;stroke-linejoin:miter;stroke-miterlimit:4;stroke-opacity:1;stroke-dasharray:none"
       id="path290"
       d="m 487.882,604.098 -20.988,0 c -7.209,27.217 -32.043,47.339 -61.495,47.339 -29.406,0 -54.205,-20.059 -61.459,-47.21 l -18.357,0 c -1.01,0 -17.84,-0.201 -31.25,-9.258 l 10.732,30.106 -24.767,0 -0.004,-0.012 -5.699,0.012 c -3.006,0 -7.264,-0.674 -11.267,-2.575 -2.817,1.682 -6.354,2.598 -10.287,2.598 l -21.772,0 c 0,0 -17.595,-0.072 -23.496,-0.045 l -22.076,0 c -0.584,0 -14.388,-0.119 -18.039,-10.338 -0.412,-1.171 -0.609,-2.359 -0.654,-3.535 -0.627,-1.771 -5.69,-15.379 -5.69,-15.379 l 5.194,0.282 c -2.401,-2.1 -7.27,-6.981 -8.055,-9.241 -0.75,-2.125 -1.066,-4.062 -1.066,-5.818 0,-1.318 0.224,-2.498 0.531,-3.615 -2.303,-2.119 -4.422,-4.846 -5.729,-8.516 -0.64,-1.83 -0.959,-3.654 -0.959,-5.432 0,-3.007 0.911,-5.878 2.698,-8.4 1.059,-1.494 2.377,-2.764 3.857,-3.846 -4.556,-3.578 -6.973,-6.629 -7.474,-11.007 -0.51,-4.471 3.072,-10.25 12.072,-10.25 44.053,0 110.27,0 152.907,0 3.623,0 6.406,2.611 7.687,5.041 0.97,1.837 4.186,7.361 5.7,9.951 l 15.783,0 c 0,0 0.043,0.123 0.047,0.131 l 13.816,0 c 11.645,-12.815 28.438,-20.873 47.076,-20.873 18.698,0 35.534,8.111 47.184,20.996 8.939,1.384 21.271,6.185 25.311,17.625 0.673,1.91 0.832,4.986 0,7.74 -0.885,2.92 -2.538,4.666 -4.331,7.199 -0.298,0.424 -0.63,0.815 -0.966,1.201 l 6.375,0 8.91,25.129 z"
       inkscape:connector-curvature="0" />
    <path
       style="fill:#231f20;fill-opacity:1;fill-rule:nonzero;stroke:none"
       id="path314"
       d="m 311.144,545.983 c -0.015,0 6.726,0 8.117,0 l -0.612,-1.682 -6.878,0 c -0.245,0 -2.461,-0.031 -2.829,-1.101 -0.381,-1.055 1.468,-1.207 2.125,-1.207 l 1.85,0 c 1.498,0 5.182,-0.428 4.371,-2.721 -0.992,-2.781 -6.449,-2.965 -6.496,-2.965 0,0 -6.725,0 -8.115,0 l 0.595,1.682 6.924,0 c 0.244,0 2.461,0.029 2.844,1.099 0.366,1.055 -1.483,1.208 -2.125,1.208 l -1.911,0 c -1.483,0 -5.166,0.427 -4.357,2.72 0.995,2.783 6.436,2.967 6.497,2.967 m -6.863,-3.256 c -0.627,-1.789 -2.475,-2.584 -4.157,-3.072 l 1.711,-3.348 -3.76,0 -1.482,2.889 -3.668,0 -1.039,-2.889 -3.823,0 3.44,9.69 8.01,0 c 1.849,0 5.731,-0.58 4.768,-3.27 m -4.249,-0.199 c 0.459,1.299 -0.841,1.789 -1.911,1.789 l -3.378,0 -1.223,-3.439 3.485,0 c 0.092,0 2.461,0.06 3.027,1.65 m -16.172,3.484 c 0,0 5.213,0 6.42,0 l -0.595,-1.695 -6.115,0 c -1.696,0 -3.27,-0.979 -4.02,-2.309 l 9.308,0 -0.595,-1.681 -9.278,0 c -0.031,-1.543 1.008,-2.324 2.446,-2.338 0,0 4.83,0 5.991,0 l -0.597,-1.682 -6.51,0 c -2.905,0 -6.375,1.254 -5.136,4.723 1.742,4.922 8.621,4.982 8.681,4.982 m -14.245,-0.015 c 3.011,0.015 6.328,-1.328 5.12,-4.83 0,0 -1.436,-4.065 -1.726,-4.86 l -3.807,0 1.713,4.799 c 0.687,1.91 -0.383,3.211 -2.416,3.211 l -2.736,0 -2.858,-8.01 -3.821,0 3.439,9.66 7.092,0.03 m -12.151,0 3.837,0 -3.455,-9.69 -3.822,0 3.44,9.69 m -7.673,0 c 3.012,0.015 6.328,-1.328 5.121,-4.83 0,0 -1.437,-4.065 -1.728,-4.86 l -3.805,0 1.711,4.799 c 0.687,1.91 -0.382,3.211 -2.414,3.211 l -2.737,0 -2.859,-8.01 -3.82,0 3.439,9.66 7.092,0.03 m -19.183,-6.633 -1.085,-3.057 -3.821,0 1.069,3.041 c -2.521,0.52 -4.417,1.758 -3.408,4.647 0,0 0.551,1.513 0.719,1.988 l 3.791,0 -0.688,-1.941 c -0.642,-1.805 0.183,-2.967 2.079,-3.164 1.818,-0.016 3.637,1.39 4.234,3.072 l 0.733,2.033 3.806,0 -0.687,-1.897 c -1.04,-2.933 -3.899,-4.203 -6.742,-4.722 m -21.307,6.619 13.864,0 -0.597,-1.682 -5.013,0 -2.842,-7.994 -3.837,0 2.843,7.994 -5.014,0 0.596,1.682 m -4.799,0 3.821,0 -3.438,-9.676 -3.823,0 1.407,3.975 -6.328,0 -1.421,-3.975 -3.822,0 3.44,9.676 3.836,0 -1.437,-4.022 6.328,0 1.437,4.022 m -18.434,0.029 c 0,0 5.793,0 7.047,0 l -0.596,-1.695 -6.741,0 c -0.046,0 -3.286,-0.063 -4.387,-3.119 -0.641,-1.819 0.214,-3.209 2.232,-3.209 l 2.812,0 1.422,3.988 3.821,0 -2.002,-5.685 -7.168,0.015 c -3.043,0 -6.328,1.36 -5.075,4.875 1.68,4.739 8.559,4.83 8.635,4.83 m -11.601,-0.015 3.837,0 -3.454,-9.69 -3.822,0 3.439,9.69 m -7.642,0.015 c 0,0 5.212,0 6.419,0 l -0.596,-1.695 -6.113,0 c -1.697,0 -3.271,-0.979 -4.02,-2.309 l 9.308,0 -0.596,-1.681 -9.278,0 c -0.031,-1.543 1.009,-2.324 2.446,-2.338 0,0 4.83,0 5.992,0 l -0.596,-1.682 -6.512,0 c -2.904,0 -6.374,1.254 -5.136,4.723 1.743,4.922 8.621,4.982 8.682,4.982"
       inkscape:connector-curvature="0" />
    <path
       style="fill:#231f20;fill-opacity:1;fill-rule:nonzero;stroke:none"
       id="path336"
       d="m 286.687,616.526 5.646,0 -5.084,-14.266 -5.625,0 5.063,14.266 m -12.061,0 c 0,0 8.415,0 10.26,-0.023 l -5.063,-14.243 -5.625,0 1.486,4.207 -9.271,0 -1.484,-4.207 -5.603,0 2.498,6.998 c 2.565,7.2 12.69,7.268 12.802,7.268 m 1.936,-7.582 1.822,5.107 -4.207,0 c -3.285,0 -5.783,-2.048 -6.864,-5.107 l 9.249,0 m -28.734,-6.684 c 0,0 -8.842,0 -10.754,0 l 5.063,14.287 10.934,0 c 4.276,0 9.361,-1.867 7.561,-6.951 -2.588,-7.246 -12.691,-7.336 -12.804,-7.336 m -0.922,11.791 -3.307,-9.316 4.657,0 c 0.068,0 4.838,0.068 6.435,4.568 0.946,2.655 -0.293,4.748 -3.262,4.748 0,0 0,0 -4.523,0 m -16.064,2.475 c 4.431,0.021 9.314,-1.957 7.537,-7.109 0,0 -2.115,-5.987 -2.543,-7.157 l -5.602,0 2.52,7.065 c 1.013,2.812 -0.563,4.726 -3.555,4.726 l -4.027,0 -4.207,-11.791 -5.626,0 5.063,14.221 10.44,0.045 m -21.69,0.021 c 0,0 7.672,0 9.45,0 l -0.877,-2.496 -9,0 c -2.498,0 -4.816,-1.441 -5.918,-3.398 l 13.703,0 -0.878,-2.475 -13.657,0 c -0.045,-2.273 1.484,-3.42 3.599,-3.443 0,0 7.111,0 8.82,0 l -0.876,-2.475 -9.586,0 c -4.276,0 -9.383,1.846 -7.561,6.953 2.566,7.245 12.691,7.334 12.781,7.334 m -23.423,-0.044 c -0.022,0 9.9,0 11.948,0 l -0.9,-2.475 -10.125,0 c -0.36,0 -3.623,-0.045 -4.163,-1.619 -0.562,-1.553 2.16,-1.778 3.128,-1.778 l 2.723,0 c 2.205,0 7.627,-0.631 6.434,-4.006 -1.461,-4.095 -9.495,-4.365 -9.562,-4.365 0,0 -9.899,0 -11.948,0 l 0.879,2.475 10.191,0 c 0.36,0 3.623,0.045 4.185,1.621 0.541,1.553 -2.182,1.777 -3.126,1.777 l -2.813,0 c -2.184,0 -7.605,0.629 -6.413,4.004 1.462,4.096 9.472,4.366 9.562,4.366"
       inkscape:connector-curvature="0" />
    <path
       style="fill:#231f20;fill-opacity:1;fill-rule:nonzero;stroke:#ffffff;stroke-width:3;stroke-linecap:butt;stroke-linejoin:miter;stroke-miterlimit:4;stroke-opacity:1;stroke-dasharray:none"
       id="path316"
       d="m 405.429,532.655 c -30.164,0 -54.616,24.453 -54.616,54.615 0,30.162 24.452,54.616 54.616,54.616 30.164,0 54.615,-24.454 54.615,-54.616 0,-30.162 -24.451,-54.615 -54.615,-54.615 z"
       inkscape:connector-curvature="0" />
    <g
       id="g4326">
      <path
         style="fill:none;stroke:#ffffff;stroke-width:2;stroke-linecap:round;stroke-linejoin:miter;stroke-miterlimit:4;stroke-opacity:1;stroke-dasharray:none"
         id="path318"
         d="m 452.886,613.731 c 0,0 -11.338,9.014 -29.364,11.918 -19.972,3.223 -38.099,-2.672 -42.154,-0.871 -5.234,2.326 -2.035,10.176 -2.035,10.176 m -20.932,-19.77 c 0,0 9.524,3.395 22.967,0.873 37.213,-6.976 61.342,-26.746 76.168,-44.482 m -27.326,-32.85 c 0,0 -10.758,2.906 -18.606,15.988 -12.06,20.1 -19.728,53.114 -34.017,53.495 -21.803,0.58 -24.129,-37.504 -24.129,-37.504 m 43.027,-37.209 c 0,0 -23.548,10.754 -25.004,40.408 -0.529,10.805 2.08,26.834 7.852,38.664 11.627,23.842 32.561,28.493 32.561,28.493"
         inkscape:connector-curvature="0" />
      <path
         style="fill:#231f20;fill-opacity:1;fill-rule:nonzero;stroke:none"
         id="path320"
         transform="matrix(0.8,0,0,-0.8,0,842)"
         d="m 439.5,312.0625 -1.6875,4.84375 -32.34375,0 c -8.99,0 -16.34,4.92875 -21.28125,12.21875 l 9.1875,0 c 4.69416,-4.94746 10.81729,-8.0625 17.96875,-8.0625 l 30.9375,0 3.21875,-9 -6,0 z m 153,0.15625 -1.6875,4.75 -36.46875,0 c -1.37625,0 -13.03875,0.17125 -15.0625,5.84375 -1.21484,3.49219 2.12988,5.11499 5.65625,5.84375 -0.0489,-0.51037 0.002,-1.06352 0.21875,-1.6875 2.02625,-5.66875 13.685,-5.84375 15.0625,-5.84375 l 36.4375,0 3.15625,-8.90625 -7.3125,0 z m -308.3125,2.25 c 1.37037,1.86898 1.82802,4.17297 0.84375,7.03125 -2.10375,5.99375 -7.27875,8.9275 -12.625,11.4375 4.29375,2.99875 6.64375,5.58375 4.78125,11.09375 -5.1825,14.9025 -37.11625,15.3125 -37.4375,15.3125 l -12.5625,0 c -4.26042,0 -13.19272,-0.70108 -19.59375,-3.4375 4.65116,6.25174 19.56796,7.59375 25.46875,7.59375 l 12.5625,0 c 0.325,0 32.2225,-0.4075 37.40625,-15.3125 1.8625,-5.5075 -0.49,-8.0975 -4.78125,-11.09375 2.65817,-1.24919 5.27996,-2.59597 7.5,-4.375 -1.53846,-2.49666 -1.90395,-5.7685 -0.40625,-10 0.73928,-2.06974 1.97586,-3.84117 3.5,-5.40625 -1.23615,-1.13796 -2.83601,-2.07137 -4.65625,-2.84375 z m 73.03125,0.375 c 0.64632,0.66137 1.2668,1.36563 1.78125,2.125 2.755,4.13125 3.08,10.28875 0.8125,16.6875 -2.77625,7.74625 -8.64375,13.15875 -15.40625,16.9375 l 12.03125,0 c 1.39644,-1.14893 2.71493,-2.41847 3.90625,-3.78125 -1.46971,-3.94113 -0.86594,-8.3075 0.59375,-12.5 1.33897,-3.74968 3.22992,-6.95833 5.5,-9.71875 -0.38227,-1.25803 -0.90531,-2.43625 -1.59375,-3.46875 -1.82808,-2.69703 -4.58847,-4.74953 -7.625,-6.28125 z m 156.25,0.625 c 1.98341,2.45907 2.67895,5.67835 1.1875,9.84375 -3.4025,9.4775 -13.1225,13.69 -22.03125,16.28125 l 4.53125,9 3.78125,0 L 498.5,345.75 c 7.74655,-2.25212 16.08802,-5.74101 20.375,-12.84375 -2.52616,-2.13496 -3.7042,-5.08375 -2.25,-9.125 0.57094,-1.62321 1.42355,-3.06862 2.5,-4.375 -1.40271,-1.63687 -3.38215,-2.92501 -5.65625,-3.9375 z M 322.9375,315.9375 c -1.37625,0 -11.98625,0.645 -15.0625,5.75 -3.10696,5.13933 0.56169,7.76759 4.90625,8.90625 -0.41344,-1.27799 -0.22293,-2.82887 0.9375,-4.75 3.07875,-5.105 13.71875,-5.75 15.09375,-5.75 l 4.28125,0 c 1.61877,0 3.61715,0.22425 5.5,0.71875 -1.14292,-3.64028 -7.38396,-4.875 -11.34375,-4.875 l -4.3125,0 z M 246,316 c -1.38,0 -13.03625,0.25 -15.0625,6 -1.21146,3.48323 2.10855,5.15027 5.625,5.90625 -0.0608,-0.52846 -0.007,-1.10076 0.21875,-1.75 2.02625,-5.74875 13.68375,-6 15.0625,-6 l 5.28125,0 c 1.30641,0 3.47734,0.12802 5.59375,0.59375 C 262.182,316.76664 254.31352,316 251.25,316 l -5.25,0 z m 218.03125,0.90625 -6.375,18.21875 7.3125,0 4.9375,-14.0625 17.90625,0 c 1.45696,0 2.97355,0.13945 4.40625,0.5 -1.42207,-3.31363 -6.14715,-4.65625 -10.28125,-4.65625 l -17.90625,0 z m -32.0625,16.375 -1.6875,4.75 -49.09375,0 c -0.18646,6.25655 2.99729,10.24969 7.875,11.8125 -1.3717,-1.97039 -2.12366,-4.53959 -2.03125,-7.65625 l 47.78125,0 3.15625,-8.90625 -6,0 z m 91.21875,2.09375 c 4.07132,5.70228 16.44784,6.96875 22.375,6.96875 l 10.03125,0 c 1.312,0 3.52088,0.12019 5.65625,0.5625 -0.34587,-4.06045 -8.40752,-4.71875 -11.5,-4.71875 l -10.0625,0 c -4.05915,0 -11.12774,-0.60964 -16.5,-2.8125 z m 59.59375,0.8125 c 1.3811,1.93038 1.83371,4.36972 0.75,7.4375 C 578.2675,358.36625 549.325,359.5 549,359.5 l -69.625,0 c -0.67957,2.29576 0.67162,4.15625 3.15625,4.15625 l 72.34375,0 c 0.32375,0 29.23625,-1.13375 34.5,-15.875 2.09217,-5.92252 -1.47983,-9.48532 -6.59375,-11.59375 z m -344.3125,1.4375 c -1.3775,0 -13.03875,0.235 -15.0625,5.90625 -1.22774,3.57676 2.12045,5.36653 5.65625,6.1875 -0.10531,-0.59964 -0.0696,-1.28053 0.1875,-2.03125 2.02625,-5.66875 13.68625,-5.90625 15.0625,-5.90625 l 5.28125,0 c 1.28764,0 3.4873,0.13176 5.625,0.59375 -0.43713,-4.05085 -8.48343,-4.75 -11.5,-4.75 l -5.25,0 z m 53.75,0.0937 c 4.1323,5.30926 13.98805,6.75 21.28125,6.75 l 12.71875,0 c 0.0673,0 1.85476,-0.0721 4.1875,-0.21875 2.23707,-1.47866 4.29243,-3.303 5.90625,-5.5625 -6.6425,1.37625 -15.8075,1.625 -15.96875,1.625 l -12.71875,0 c -4.81535,0 -10.7425,-0.64275 -15.40625,-2.59375 z m 162.1875,6.3125 -5.4375,15.3125 -26.25,0 -0.0625,0.15625 -96.875,0 c -1.44625,0 -2.49375,-0.64625 -3,-1.625 -7.6475,1.38 -13.41125,1.46875 -13.53125,1.46875 l -19.96875,0 -1.46875,4.15625 27.3125,0 c 0.12,0 5.85375,-0.0863 13.5,-1.46875 0.50625,0.9825 1.55125,1.625 3,1.625 l 96.875,0 0.0625,-0.15625 26.28125,0 5.40625,-15.3125 15.75,0 -2.0625,-4.15625 -19.53125,0 z"
         inkscape:connector-curvature="0" />
    </g>
    <path
       id="path3221"
       style="fill:#ffffff;fill-opacity:1;fill-rule:nonzero;stroke:#231f20;stroke-width:2.70000005;stroke-linecap:butt;stroke-linejoin:miter;stroke-miterlimit:4;stroke-opacity:1;stroke-dasharray:none"
       d="m 228.027,584.792 c 3.436,9.978 -14.968,11.664 -21.125,11.664 l -9.914,0 c -0.066,0 -0.131,0 -0.131,0 -0.257,0 -25.724,-0.196 -29.871,-12.118 -1.556,-4.406 0.387,-6.48 3.758,-8.878 -4.277,-2.075 -8.359,-4.407 -10.045,-9.137 -3.498,-9.979 14.904,-11.793 21.061,-11.793 9.654,0 10.045,0 10.045,0 0.257,0 25.791,0.324 29.937,12.246 1.49,4.408 -0.389,6.48 -3.824,8.879 4.277,2.008 8.426,4.342 10.109,9.137 m -24.041,-18.081 c -1.619,-4.664 -11.015,-4.99 -12.117,-4.99 l -4.213,0 c -2.851,0 -10.498,0.908 -8.941,5.444 1.619,4.537 10.951,4.73 12.053,4.73 3.628,0 4.21,0 4.21,0 2.723,0 10.563,-0.711 9.008,-5.184 m 6.028,17.237 c -1.621,-4.535 -11.018,-4.731 -12.055,-4.731 -3.822,0 -4.211,0 -4.211,0 -2.787,0 -10.563,0.715 -9.008,5.186 1.621,4.6 10.951,4.795 12.055,4.795 l 4.211,0 c 2.787,0 10.562,-0.777 9.008,-5.25 m 233.471,4.473 29.16,0 2.528,7.126 c -5.897,0 -34.41,0 -34.41,0 -0.194,0 -23.327,-0.777 -27.475,-12.57 -3.498,-9.721 12.117,-11.535 18.469,-11.535 l 8.035,0 c 2.785,0 10.627,-0.648 9.006,-5.119 -1.619,-4.535 -11.016,-4.795 -12.117,-4.795 l -38.944,0 -3.629,7.193 c 7.127,2.073 14.903,5.442 17.625,13.024 4.084,11.406 -12.377,13.869 -20.216,13.869 l -33.957,0 -12.053,-33.957 -23.133,0 c -0.334,0 -0.674,-0.053 -1.01,-0.129 -3.568,0 -6.181,0 -6.181,0 -6.028,0.064 -10.434,3.5 -10.239,10.043 l 39.27,0 2.525,7.129 -39.398,0 c 3.953,5.832 9.851,9.785 17.043,9.785 l 25.855,0 2.53,7.191 c -5.057,0 -27.155,0 -27.155,0 -0.322,0 -29.418,-0.257 -36.869,-21.123 -1.557,-4.472 -1.881,-9.201 1.295,-13.025 l -14.506,0 c 5.41,3.023 10.084,7.346 12.305,13.543 1.814,5.119 1.553,10.045 -0.651,13.35 -3.951,5.832 -13.283,7.97 -18.013,7.97 l -13.349,0.065 c -0.26,0 -23.328,-0.842 -27.541,-12.637 -4.082,-11.533 9.137,-14.061 17.82,-14.061 l 10.174,0 c 0.129,0 7.453,0.194 12.767,1.295 -6.156,-8.619 -20.284,-9.396 -20.413,-9.396 l -20.541,0 -2.528,-7.127 21.838,0 c 0.096,0 4.701,0.064 10.819,1.168 0.405,-0.783 1.243,-1.297 2.4,-1.297 l 77.501,0 0.047,0.129 21.012,0 4.341,12.246 15.618,0 2.843,-5.688 c -1.388,-0.593 -2.615,-1.746 -3.105,-3.125 -0.713,-1.943 0.391,-3.562 2.463,-3.562 57.931,0 57.867,0 57.867,0 0.26,0 23.394,0.906 27.605,12.699 3.434,9.721 -12.183,11.535 -18.468,11.535 l -7.907,0 c -2.785,0 -10.56,0.649 -9.005,5.119 1.619,4.538 10.951,4.667 12.052,4.667 m -173.402,-6.87 c -2.463,-4.082 -10.951,-4.601 -12.053,-4.601 l -3.37,0 c -4.342,0 -11.924,1.814 -8.359,7.711 2.461,4.084 10.952,4.601 12.053,4.601 l 3.434,0 c 4.277,0 11.924,-1.814 8.295,-7.711 m 110.742,-7.646 -14.711,0 5.119,14.58 14.323,0 c 4.599,0 10.107,-2.074 8.162,-7.582 -2.395,-6.74 -12.44,-6.998 -12.893,-6.998 z"
       inkscape:connector-curvature="0" />
  </g>
  <flowRoot
     id="flowRoot3151"
     style="font-size:10px;font-style:normal;font-variant:normal;font-stretch:normal;text-align:start;line-height:125%;letter-spacing:0px;word-spacing:0px;writing-mode:lr-tb;text-anchor:start;fill:#000000;fill-opacity:1;stroke:none;font-family:MS PGothic"
     transform="translate(459,-26.141746)">
    <flowRegion
       id="flowRegion3153">
      <rect
         id="rect3155"
         width="78"
         height="26.5"
         x="78"
         y="77.95668"
         style="font-style:normal;font-variant:normal;font-stretch:normal;text-align:start;text-anchor:start;fill:none;stroke:none;font-family:MS PGothic" />
    </flowRegion>
    <flowDiv style="font-size:8px;line-height:100%">
      <flowPara>{{開催日}}</flowPara>
      <flowPara>開場 {{開場時刻}} 開演 {{開始時刻}}</flowPara>
      <flowPara>公演コード {{公演コード}}</flowPara>
    </flowDiv>
  </flowRoot>
  <flowRoot
     transform="translate(459,8.103994)"
     style="font-size:10px;font-style:normal;font-variant:normal;font-stretch:normal;text-align:start;line-height:125%;letter-spacing:0px;word-spacing:0px;writing-mode:lr-tb;text-anchor:start;fill:#000000;fill-opacity:1;stroke:none;font-family:MS PGothic"
     id="flowRoot3165">
    <flowRegion
       id="flowRegion3167">
      <rect
         style="font-style:normal;font-variant:normal;font-stretch:normal;text-align:start;text-anchor:start;fill:none;stroke:none;font-family:MS PGothic"
         y="77.95668"
         x="78"
         height="26.254257"
         width="83"
         id="rect3169" />
    </flowRegion>
    <flowDiv style="font-size:8px;line-height:100%">
      <flowPara>{{券種名}} {{席番}}</flowPara>
      <flowPara>￥{{チケット価格}} (税込)</flowPara>
    </flowDiv>
  </flowRoot>
  <flowRoot
     transform="translate(462,100.60401)"
     style="font-size:10px;font-style:normal;font-variant:normal;font-stretch:normal;text-align:start;line-height:125%;letter-spacing:0px;word-spacing:0px;writing-mode:lr-tb;text-anchor:start;fill:#000000;fill-opacity:1;stroke:none;font-family:MS PGothic"
     id="flowRoot3177">
    <flowRegion
       id="flowRegion3179">
      <rect
         style="font-style:normal;font-variant:normal;font-stretch:normal;text-align:start;text-anchor:start;fill:none;stroke:none;font-family:MS PGothic"
         y="77.95668"
         x="78"
         height="14.5"
         width="73"
         id="rect3181" />
    </flowRegion>
    <flowDiv><flowPara>{{発券番号}}</flowPara></flowDiv>
  </flowRoot>
</svg>
